<?xml version="1.0" encoding="UTF-8" standalone="no"?>
<!-- Created with Inkscape (http://www.inkscape.org/) -->

<svg
   xmlns:dc="http://purl.org/dc/elements/1.1/"
   xmlns:cc="http://creativecommons.org/ns#"
   xmlns:rdf="http://www.w3.org/1999/02/22-rdf-syntax-ns#"
   xmlns:svg="http://www.w3.org/2000/svg"
   xmlns="http://www.w3.org/2000/svg"
   xmlns:sodipodi="http://sodipodi.sourceforge.net/DTD/sodipodi-0.dtd"
   xmlns:inkscape="http://www.inkscape.org/namespaces/inkscape"
   width="108"
   height="108"
   viewBox="0 0 28.574999 28.575001"
   version="1.1"
   id="svg832"
   inkscape:version="0.92.3 (2405546, 2018-03-11)"
   sodipodi:docname="lonely_egg_foreground.svg">
  <sodipodi:namedview
     id="base"
     pagecolor="#ffffff"
     bordercolor="#666666"
     borderopacity="1.0"
     inkscape:pageopacity="0.0"
     inkscape:pageshadow="2"
     inkscape:zoom="1.979899"
     inkscape:cx="-116.62845"
     inkscape:cy="55.864347"
     inkscape:document-units="mm"
     inkscape:current-layer="layer4"
     showgrid="false"
     units="px"
     inkscape:window-width="1883"
     inkscape:window-height="1052"
     inkscape:window-x="37"
     inkscape:window-y="0"
     inkscape:window-maximized="1" />
  <defs
     id="defs826" />
  <metadata
     id="metadata829">
    <rdf:RDF>
      <cc:Work
         rdf:about="">
        <dc:format>image/svg+xml</dc:format>
        <dc:type
           rdf:resource="http://purl.org/dc/dcmitype/StillImage" />
        <dc:title />
      </cc:Work>
    </rdf:RDF>
  </metadata>
  <g
     inkscape:groupmode="layer"
     id="layer5"
     inkscape:label="circle-background"
     sodipodi:insensitive="true"
     style="display:none">
    <circle
       style="opacity:1;fill:#808080;fill-opacity:1;stroke:none;stroke-width:0.16865559;stroke-miterlimit:4;stroke-dasharray:none;stroke-opacity:1"
       id="path822"
       cx="14.2875"
       cy="14.2875"
       r="8.7312498" />
  </g>
  <g
     inkscape:groupmode="layer"
     id="layer2"
     inkscape:label="shadow"
     style="display:inline">
    <path
       inkscape:connector-curvature="0"
       id="path980-3"
       d="m 15.345833,6.2177082 a 7.0114585,7.0114585 0 0 0 -0.05529,0.00206 c -0.126994,0.00101 -0.252971,0.00577 -0.378272,0.013436 a 7.0114585,7.0114585 0 0 0 -0.117305,0.00878 c -0.206586,0.016092 -0.410677,0.040286 -0.611849,0.073897 a 7.0114585,7.0114585 0 0 0 -0.06666,0.011885 c -0.213218,0.037754 -0.423322,0.085033 -0.629419,0.1415934 a 7.0114585,7.0114585 0 0 0 -0.03721,0.010335 c -0.215289,0.060371 -0.426144,0.1304473 -0.632519,0.2103231 a 7.0114585,7.0114585 0 0 0 -0.02584,0.010335 c -0.205596,0.080521 -0.406423,0.1703887 -0.60203,0.2692341 a 7.0114585,7.0114585 0 0 0 -0.04909,0.025321 c -0.188506,0.097135 -0.371758,0.2024988 -0.549837,0.3157429 a 7.0114585,7.0114585 0 0 0 -0.06253,0.039791 c -0.171073,0.1113409 -0.336813,0.230105 -0.497128,0.3555339 a 7.0114585,7.0114585 0 0 0 -0.07596,0.059945 c -0.155213,0.124918 -0.30513,0.2563143 -0.449069,0.3937746 a 7.0114585,7.0114585 0 0 0 -0.07287,0.069769 c -0.143976,0.1414908 -0.28151,0.2894665 -0.412894,0.4428674 a 7.0114585,7.0114585 0 0 0 -0.05529,0.064079 c -0.137071,0.1639789 -0.266238,0.334373 -0.388092,0.510563 a 7.0114585,7.0114585 0 0 0 -0.02429,0.03462 C 9.424493,9.4689146 9.3054183,9.6626763 9.1958186,9.8624363 a 7.0114585,7.0114585 0 0 0 -0.00414,0.0072 C 8.8602073,10.475547 8.6154453,11.135646 8.4744147,11.833377 a 7.0114585,7.0114585 0 0 0 -0.00156,0.0088 c -0.044934,0.223775 -0.07976,0.4512 -0.1028361,0.682129 a 7.0114585,7.0114585 0 0 0 -0.00103,0.01809 c -0.021315,0.218962 -0.032889,0.440681 -0.03359,0.665075 a 7.0114585,7.0114585 0 0 0 -0.00102,0.02171 7.0114585,7.0114585 0 0 0 0.00206,0.05219 c 9.26e-4,0.128744 0.00565,0.256435 0.013435,0.383439 a 7.0114585,7.0114585 0 0 0 0.00827,0.113688 c 0.016139,0.208195 0.041,0.413802 0.074931,0.6165 a 7.0114585,7.0114585 0 0 0 0.010853,0.05943 c 0.038121,0.216225 0.085691,0.429299 0.1431438,0.638204 a 7.0114585,7.0114585 0 0 0 0.00723,0.02635 c 0.061386,0.219824 0.1332685,0.434899 0.2149739,0.645439 a 7.0114585,7.0114585 0 0 0 0.00414,0.01137 c 0.08239,0.211215 0.1747641,0.417363 0.2764689,0.61805 a 7.0114585,7.0114585 0 0 0 0.017052,0.03256 c 0.1004962,0.195742 0.2092788,0.386509 0.3271118,0.571025 a 7.0114585,7.0114585 0 0 0 0.025321,0.03927 c 0.1159803,0.178975 0.2401953,0.352115 0.3715533,0.519348 a 7.0114585,7.0114585 0 0 0 0.04186,0.05374 c 0.02125,0.02652 0.04142,0.0539 0.06305,0.0801 4.5e-4,5.56e-4 0.0011,9.79e-4 0.0016,0.0016 0.07101,0.08599 0.1441517,0.170228 0.2191087,0.252698 5.02e-4,5.29e-4 0.0011,10e-4 0.0016,0.0016 0.002,0.0022 0.0042,0.004 0.0062,0.0062 0.03868,0.04245 0.07916,0.08306 0.118855,0.12454 a 7.0114585,7.0114585 0 0 0 0.05788,0.06098 c 6.88e-4,6.88e-4 0.0014,0.0014 0.0021,0.0021 0.0158,0.0161 0.03056,0.03315 0.04651,0.04909 6.88e-4,6.88e-4 0.0014,0.0014 0.0021,0.0021 10e-4,0.001 0.0021,0.0021 0.0031,0.0031 0.0012,0.0012 0.0024,0.0024 0.0036,0.0036 8.73e-4,8.73e-4 0.0017,0.0017 0.0026,0.0026 0.0043,0.0043 0.0086,0.0086 0.01292,0.01292 0.0013,0.0013 0.0028,0.0023 0.0041,0.0036 9.53e-4,9.53e-4 0.0016,0.0022 0.0026,0.0031 0.0018,0.0018 0.0039,0.0034 0.0057,0.0052 0,0 5.29e-4,5.29e-4 5.29e-4,5.29e-4 0.0029,0.0029 0.0058,0.0059 0.0088,0.0088 0.0035,0.0035 0.0068,0.0073 0.01033,0.01085 0.0039,0.0039 0.008,0.0075 0.01188,0.01137 0.0041,0.0041 0.0083,0.0083 0.0124,0.0124 0.0045,0.0045 0.009,0.009 0.01344,0.01344 0.005,0.005 0.01,0.01 0.01499,0.01499 0.0052,0.0053 0.01024,0.01077 0.0155,0.01602 0.0056,0.0056 0.01145,0.01095 0.01705,0.01654 0.0059,0.0059 0.0117,0.01172 0.01757,0.01757 0.0063,0.0063 0.01231,0.01285 0.0186,0.01912 0.0067,0.0067 0.01342,0.01345 0.02015,0.02015 0.007,0.007 0.0142,0.01371 0.02119,0.02067 0.0072,0.0073 0.01445,0.01448 0.0217,0.0217 0.0077,0.0078 0.01548,0.01552 0.02325,0.02325 0.008,0.008 0.01626,0.01578 0.02429,0.02377 0.0084,0.0085 0.01685,0.01689 0.02532,0.02532 0.0087,0.0087 0.01712,0.01768 0.02584,0.02636 0.009,0.0091 0.01832,0.01786 0.02739,0.02687 0.0095,0.0095 0.01891,0.01897 0.02842,0.02842 0.0098,0.0099 0.0196,0.01966 0.02945,0.02946 0.01004,0.0101 0.01987,0.02044 0.02997,0.03049 0.01039,0.01045 0.02107,0.02062 0.03152,0.03101 0.01099,0.01106 0.02201,0.02208 0.03307,0.03307 0.011,0.01107 0.022,0.02207 0.03307,0.03307 0.01151,0.01159 0.02303,0.02311 0.03462,0.03462 0.01185,0.01194 0.02372,0.0238 0.03566,0.03566 0.0122,0.01228 0.0244,0.02449 0.03669,0.03669 0.01254,0.01263 0.02509,0.02519 0.03772,0.03772 0.01288,0.01298 0.02578,0.02588 0.03876,0.03876 0.01322,0.01333 0.02646,0.02657 0.03979,0.03979 0.01356,0.01367 0.02715,0.02726 0.04082,0.04082 0.01391,0.01402 0.02783,0.02795 0.04186,0.04186 0.01441,0.01453 0.02887,0.029 0.04341,0.04341 0.01449,0.01462 0.02931,0.02892 0.04392,0.04341 0.015,0.01514 0.02982,0.03047 0.04496,0.04547 0.01527,0.01541 0.03058,0.03072 0.04599,0.04599 0.01561,0.01576 0.03126,0.03141 0.04702,0.04703 0.01621,0.01636 0.03273,0.03237 0.04909,0.04858 0.01619,0.01635 0.03222,0.0329 0.04858,0.04909 0.01664,0.0168 0.03332,0.03349 0.05013,0.05013 0.01707,0.01724 0.03443,0.0341 0.05168,0.05116 0.01739,0.01757 0.03462,0.03532 0.05219,0.05271 0.01766,0.01785 0.03538,0.03557 0.05323,0.05323 0.01807,0.01826 0.03651,0.03619 0.05478,0.05426 0.01843,0.01863 0.03666,0.03738 0.05529,0.05581 0.01875,0.01896 0.03788,0.03758 0.05684,0.05633 0.01911,0.01933 0.03803,0.03877 0.05736,0.05788 0.01943,0.01966 0.03925,0.03897 0.05891,0.0584 0.01988,0.02012 0.03983,0.04007 0.05995,0.05994 0.02011,0.02035 0.0401,0.04087 0.06046,0.06098 0.02047,0.02072 0.04128,0.04103 0.06201,0.0615 0.01936,0.0196 0.03881,0.03902 0.0584,0.0584 0.02411,0.02446 0.0484,0.04876 0.07286,0.07286 0.02006,0.02028 0.04016,0.04042 0.06046,0.06046 0.02192,0.02221 0.04393,0.04423 0.06615,0.06615 0.02215,0.02245 0.04473,0.04451 0.06718,0.06666 0.02249,0.0228 0.04489,0.04572 0.0677,0.06821 0.02327,0.02359 0.04668,0.04702 0.07028,0.07028 0.02294,0.02326 0.04598,0.04631 0.06925,0.06925 0.02362,0.02396 0.04735,0.0477 0.07131,0.07131 0.02396,0.02431 0.04804,0.04839 0.07235,0.07235 0.02396,0.02431 0.04804,0.04839 0.07235,0.07235 0.02462,0.025 0.04942,0.04979 0.07441,0.07441 0.02496,0.02535 0.05011,0.05048 0.07545,0.07545 0.02564,0.02604 0.05147,0.05187 0.07751,0.07751 0.02566,0.02606 0.05146,0.05186 0.07752,0.07752 0.02599,0.02641 0.05214,0.05255 0.07855,0.07855 0.02633,0.02676 0.05282,0.05325 0.07958,0.07958 0.02667,0.02711 0.05351,0.05394 0.08061,0.08061 0.02701,0.02746 0.05419,0.05464 0.08165,0.08165 0.02741,0.02786 0.05533,0.05528 0.0832,0.08268 0.02775,0.02822 0.0555,0.05649 0.08371,0.08423 0.02803,0.02851 0.05624,0.05672 0.08475,0.08475 0.02837,0.02886 0.05692,0.05742 0.08578,0.08578 0.02876,0.02927 0.05806,0.05806 0.08733,0.08682 0.0291,0.02962 0.05874,0.05875 0.08837,0.08785 0.02939,0.02992 0.05896,0.05949 0.08888,0.08888 0.02944,0.02997 0.05891,0.05996 0.08888,0.0894 0.03047,0.03104 0.06146,0.06151 0.0925,0.09198 0.03049,0.03106 0.06093,0.06202 0.09198,0.0925 0.03079,0.03137 0.06216,0.06223 0.09353,0.09302 0.03117,0.03176 0.06229,0.06341 0.09405,0.09457 0.03147,0.03207 0.06353,0.06362 0.0956,0.09509 0.03184,0.03246 0.06366,0.0648 0.09612,0.09663 0.03214,0.03278 0.06489,0.06501 0.09767,0.09715 0.03293,0.03358 0.06614,0.06682 0.09973,0.09973 0.03252,0.03316 0.06502,0.06619 0.09819,0.0987 0.03316,0.03383 0.06694,0.0671 0.100769,0.100252 0.03353,0.03422 0.06706,0.06828 0.101286,0.101803 0.03395,0.03465 0.06818,0.06889 0.102836,0.102836 0.03417,0.03488 0.06898,0.06919 0.103869,0.103353 0.03459,0.03532 0.06958,0.07032 0.104903,0.104903 0.03488,0.03562 0.06979,0.07106 0.10542,0.105937 0.0353,0.03606 0.07091,0.07167 0.10697,0.10697 0.03555,0.03633 0.07167,0.07194 0.108004,0.107487 0.03594,0.03673 0.07231,0.0731 0.109038,0.109037 0.03627,0.03708 0.07299,0.0738 0.11007,0.110071 0.03661,0.03743 0.07367,0.0745 0.111105,0.111104 0.03695,0.03778 0.07435,0.0752 0.112138,0.112138 0.0372,0.03805 0.07512,0.07546 0.113171,0.112655 0.03762,0.03849 0.07571,0.07658 0.114205,0.114204 0.03668,0.03754 0.07359,0.07491 0.111104,0.111622 0.04098,0.04202 0.08252,0.08356 0.12454,0.12454 0.03739,0.03821 0.07544,0.07582 0.113688,0.113171 0.03897,0.0399 0.07843,0.07937 0.11834,0.118339 0.03935,0.0403 0.07907,0.08003 0.119372,0.119373 0.03968,0.04065 0.07975,0.08073 0.120406,0.120406 0.04002,0.041 0.08043,0.08142 0.12144,0.12144 0.0404,0.0414 0.08107,0.0826 0.122473,0.12299 0.04073,0.04175 0.08227,0.08278 0.124023,0.123505 0.04103,0.04206 0.08247,0.08351 0.124541,0.124542 0.04185,0.04291 0.08419,0.08529 0.127124,0.127121 0.04132,0.04237 0.08319,0.08426 0.125573,0.125574 0.04204,0.04312 0.08451,0.08561 0.127641,0.127643 0.04199,0.04308 0.08457,0.08565 0.127641,0.127641 0.04318,0.04434 0.08693,0.08807 0.131258,0.131257 0.04304,0.04418 0.08656,0.0877 0.130741,0.130741 0.0435,0.04467 0.08763,0.0888 0.132292,0.132292 0.0432,0.04437 0.0869,0.08805 0.131258,0.131259 0.04469,0.04594 0.08999,0.09121 0.135909,0.135909 0.04504,0.04627 0.09065,0.09192 0.136943,0.136943 0.04422,0.04541 0.08893,0.09015 0.134358,0.134358 0.04509,0.04634 0.09111,0.09185 0.13746,0.136943 0.04496,0.04622 0.09021,0.09196 0.136426,0.13694 0.04636,0.04771 0.09339,0.0947 0.141076,0.141079 0.0461,0.0474 0.09315,0.09395 0.14056,0.140041 0.04657,0.0479 0.09369,0.09503 0.141594,0.141595 0.0463,0.04764 0.09293,0.09476 0.140559,0.141075 0.04651,0.0479 0.09374,0.09504 0.141594,0.141595 0.04985,0.05139 0.100533,0.102079 0.151929,0.151929 0.04661,0.04792 0.09415,0.09502 0.14211,0.141592 0.04824,0.04968 0.09708,0.09853 0.146761,0.146761 0.04857,0.05003 0.09776,0.09923 0.147794,0.147797 0.04891,0.05038 0.09844,0.09992 0.148829,0.148828 0.04924,0.05074 0.09912,0.100623 0.149861,0.14986 0.04958,0.05109 0.0998,0.101325 0.150895,0.150894 0.04991,0.05145 0.100475,0.102026 0.151929,0.151929 0.05024,0.05181 0.101153,0.102725 0.152962,0.152964 0.05058,0.05216 0.101832,0.103423 0.153996,0.153995 0.05091,0.05251 0.10251,0.104124 0.155029,0.15503 0.05124,0.05287 0.103188,0.104823 0.156063,0.156062 0.05042,0.05203 0.10148,0.103545 0.153479,0.153996 0.0541,0.05592 0.109441,0.110749 0.165365,0.164848 0.05121,0.05279 0.103228,0.104894 0.156062,0.156062 0.05258,0.05429 0.105901,0.107625 0.160197,0.160197 0.05291,0.05465 0.106579,0.108323 0.161231,0.161232 0.05268,0.05442 0.106308,0.108019 0.160714,0.160713 0.05421,0.05605 0.10933,0.111141 0.165364,0.165365 0.05391,0.05571 0.108612,0.110424 0.164331,0.16433 0.05427,0.0561 0.109777,0.111098 0.165882,0.165364 0.05466,0.05652 0.109877,0.112258 0.166398,0.166916 0.055,0.05687 0.111068,0.112442 0.167948,0.167431 0.05527,0.05717 0.111294,0.113717 0.168465,0.168984 0.05566,0.05758 0.112424,0.113842 0.170016,0.169497 0.05594,0.05788 0.112649,0.11512 0.170532,0.17105 0.05565,0.05759 0.112435,0.113832 0.170015,0.169498 0.05729,0.05935 0.115852,0.117361 0.175183,0.174667 0.05765,0.05968 0.115987,0.118605 0.1757,0.176215 0.05676,0.05873 0.114354,0.11639 0.173117,0.173117 0.0576,0.05966 0.116549,0.118105 0.176216,0.175699 0.05799,0.06009 0.116642,0.119264 0.176733,0.17725 0.05841,0.06053 0.11775,0.119885 0.178284,0.178284 0.0586,0.06073 0.118581,0.120211 0.179318,0.1788 0.05893,0.06109 0.11874,0.121431 0.179833,0.180351 0.0594,0.0616 0.11978,0.121989 0.181385,0.181385 0.05906,0.06125 0.119115,0.121274 0.180351,0.180351 0.06068,0.063 0.122531,0.124814 0.185518,0.185517 0.05924,0.06146 0.119954,0.121598 0.181384,0.18087 0.06266,0.06511 0.126607,0.129066 0.19172,0.191719 0.06003,0.06223 0.121178,0.123473 0.183451,0.183452 0.06133,0.06367 0.123902,0.126262 0.187586,0.187584 0.06237,0.06477 0.125881,0.12835 0.190686,0.190685 0.06205,0.0644 0.125192,0.127662 0.189652,0.189654 0.06168,0.06402 0.124566,0.126979 0.188619,0.188619 0.06266,0.0651 0.126606,0.129071 0.19172,0.191719 0.06299,0.06546 0.127283,0.129776 0.192751,0.192754 0.06264,0.06512 0.126625,0.129054 0.19172,0.19172 0.06441,0.06703 0.130392,0.132451 0.197403,0.196887 0.06405,0.06661 0.129236,0.131808 0.195855,0.195853 0.06438,0.06697 0.129911,0.132511 0.196887,0.196887 0.06442,0.06703 0.129866,0.132977 0.196887,0.197403 0.06563,0.06833 0.132689,0.135395 0.201023,0.201022 0.06509,0.06773 0.13172,0.133877 0.199469,0.198954 0.0657,0.0684 0.132612,0.135323 0.201023,0.201022 0.06529,0.06799 0.132027,0.134673 0.199988,0.199988 0.06714,0.06999 0.135705,0.138507 0.205671,0.205671 0.06678,0.06957 0.134548,0.137872 0.204121,0.20464 0.06704,0.06985 0.135821,0.138125 0.205674,0.205155 0.06735,0.07019 0.135987,0.13884 0.206189,0.20619 0.06778,0.07065 0.137076,0.13997 0.207738,0.207737 0.06802,0.07091 0.137337,0.140248 0.208256,0.208257 0.06878,0.07172 0.139094,0.142089 0.210841,0.210841 a 7.0114585,7.0114585 0 0 0 5.059085,2.160039 7.0114585,7.0114585 0 0 0 7.011458,-7.011458 7.0114585,7.0114585 0 0 0 -2.090311,-4.986258 c -0.09061,-0.0973 -0.184653,-0.19169 -0.280604,-0.283705 -0.06801,-0.07092 -0.137343,-0.140239 -0.208256,-0.208256 -0.06777,-0.07066 -0.137086,-0.139956 -0.207738,-0.207737 -0.06735,-0.0702 -0.135996,-0.138835 -0.20619,-0.20619 -0.06703,-0.06985 -0.135308,-0.138637 -0.205155,-0.205674 -0.06677,-0.06957 -0.135075,-0.137343 -0.204639,-0.204121 -0.06644,-0.06921 -0.13388,-0.13716 -0.203089,-0.203605 -0.06604,-0.06878 -0.1338,-0.136009 -0.202571,-0.202054 -0.0657,-0.06841 -0.132619,-0.135318 -0.201022,-0.201022 -0.06536,-0.06805 -0.131942,-0.134615 -0.199988,-0.199988 -0.06437,-0.067 -0.129916,-0.132996 -0.196887,-0.197403 -0.0654,-0.06812 -0.132424,-0.134554 -0.200504,-0.199988 -0.06438,-0.06698 -0.129918,-0.132506 -0.196887,-0.196887 -0.06405,-0.06662 -0.129241,-0.131803 -0.195852,-0.195856 -0.06373,-0.06627 -0.128554,-0.131603 -0.194821,-0.195336 -0.06331,-0.06582 -0.127966,-0.130471 -0.193786,-0.193786 -0.06298,-0.06547 -0.127297,-0.129765 -0.192754,-0.192752 -0.06265,-0.06511 -0.126619,-0.129064 -0.19172,-0.19172 -0.06231,-0.06476 -0.125942,-0.12836 -0.190685,-0.190687 -0.06199,-0.0644 -0.125267,-0.127657 -0.189654,-0.189652 -0.06165,-0.06404 -0.124589,-0.126954 -0.188619,-0.188619 -0.06132,-0.06368 -0.123912,-0.126252 -0.187584,-0.187586 -0.06108,-0.06341 -0.123148,-0.125986 -0.186552,-0.187068 -0.06058,-0.06288 -0.122651,-0.124417 -0.185518,-0.185002 -0.06025,-0.06252 -0.121454,-0.124232 -0.18397,-0.184485 -0.0607,-0.06299 -0.122513,-0.124832 -0.185518,-0.185518 -0.05908,-0.06123 -0.119097,-0.121292 -0.180351,-0.180351 -0.0594,-0.0616 -0.119785,-0.121981 -0.181385,-0.181384 -0.05892,-0.06109 -0.119263,-0.120907 -0.18035,-0.179834 -0.05859,-0.06074 -0.118068,-0.120722 -0.178801,-0.179317 -0.0584,-0.06053 -0.117755,-0.119877 -0.178284,-0.178284 -0.05799,-0.06009 -0.117165,-0.118738 -0.177249,-0.176733 -0.05759,-0.05967 -0.116039,-0.118617 -0.1757,-0.176217 -0.05673,-0.05876 -0.114382,-0.116359 -0.173116,-0.173116 -0.05761,-0.05971 -0.116534,-0.118056 -0.176216,-0.1757 -0.05731,-0.05933 -0.115316,-0.117897 -0.174667,-0.175183 -0.05567,-0.05758 -0.111903,-0.114364 -0.169497,-0.170015 -0.05593,-0.05788 -0.113173,-0.114598 -0.171051,-0.170533 -0.05566,-0.05759 -0.111916,-0.114351 -0.169497,-0.170015 -0.05527,-0.05717 -0.111816,-0.113195 -0.168984,-0.168465 -0.05499,-0.05688 -0.110559,-0.112951 -0.167431,-0.167949 -0.05466,-0.05652 -0.110398,-0.111736 -0.166915,-0.166398 -0.05427,-0.0561 -0.109265,-0.111608 -0.165365,-0.165881 -0.05391,-0.05572 -0.108617,-0.110419 -0.16433,-0.164331 -0.05422,-0.05603 -0.109315,-0.111159 -0.165364,-0.165365 -0.05269,-0.0544 -0.106297,-0.108033 -0.160714,-0.160714 -0.05291,-0.05465 -0.106584,-0.108318 -0.161231,-0.16123 -0.05257,-0.0543 -0.105905,-0.107618 -0.160198,-0.160197 -0.05117,-0.05283 -0.103267,-0.104854 -0.156062,-0.156063 -0.0541,-0.05592 -0.108926,-0.111261 -0.164848,-0.165364 -0.05045,-0.052 -0.101965,-0.103059 -0.153996,-0.153479 -0.05124,-0.05288 -0.103192,-0.104818 -0.156061,-0.156063 -0.05091,-0.05252 -0.102516,-0.104118 -0.15503,-0.15503 -0.05057,-0.05216 -0.101839,-0.103418 -0.153996,-0.153995 -0.05024,-0.05181 -0.101158,-0.102719 -0.152963,-0.152962 -0.0499,-0.05146 -0.100479,-0.10202 -0.151929,-0.151929 -0.04957,-0.0511 -0.0998,-0.10132 -0.150895,-0.150895 -0.04924,-0.05074 -0.09912,-0.100621 -0.14986,-0.149862 -0.0489,-0.05039 -0.09845,-0.09992 -0.148828,-0.148828 -0.04857,-0.05004 -0.09777,-0.09922 -0.147796,-0.147795 -0.04823,-0.04968 -0.09709,-0.09852 -0.146762,-0.146761 -0.04776,-0.04918 -0.09604,-0.09796 -0.145209,-0.145727 -0.04743,-0.04883 -0.09587,-0.09675 -0.144695,-0.144178 -0.0478,-0.0492 -0.096,-0.09794 -0.145211,-0.145727 -0.04632,-0.04763 -0.09343,-0.09426 -0.141076,-0.14056 -0.04656,-0.04791 -0.09369,-0.09503 -0.141595,-0.141593 -0.04609,-0.04741 -0.09264,-0.09446 -0.140041,-0.14056 -0.04638,-0.04769 -0.09337,-0.09472 -0.141078,-0.141077 -0.04498,-0.04622 -0.09071,-0.09146 -0.136941,-0.136426 -0.04509,-0.04635 -0.0906,-0.09237 -0.136943,-0.137459 -0.04421,-0.04543 -0.08894,-0.09014 -0.134358,-0.134359 -0.04502,-0.04629 -0.09067,-0.0919 -0.136943,-0.136942 -0.0447,-0.04592 -0.08997,-0.09122 -0.135908,-0.135909 -0.04322,-0.04436 -0.0869,-0.08806 -0.13126,-0.131259 -0.0435,-0.04467 -0.08762,-0.08879 -0.132292,-0.132291 -0.04304,-0.04419 -0.08656,-0.0877 -0.130741,-0.130741 -0.04319,-0.04433 -0.08692,-0.08808 -0.131257,-0.131259 -0.04199,-0.04307 -0.08456,-0.08565 -0.12764,-0.12764 -0.04203,-0.04313 -0.08452,-0.08561 -0.127643,-0.127641 -0.04131,-0.04238 -0.08321,-0.08425 -0.125574,-0.125574 -0.04183,-0.04293 -0.08421,-0.08527 -0.127122,-0.127124 -0.04103,-0.04207 -0.08248,-0.08351 -0.124542,-0.12454 -0.04073,-0.04175 -0.08176,-0.08329 -0.123505,-0.124024 -0.04039,-0.0414 -0.0816,-0.08208 -0.122991,-0.122473 -0.04002,-0.04101 -0.08044,-0.08142 -0.121439,-0.121439 -0.03968,-0.04065 -0.07976,-0.08072 -0.120407,-0.120406 -0.03934,-0.0403 -0.07907,-0.08002 -0.119372,-0.119373 -0.03897,-0.03991 -0.07844,-0.07937 -0.118339,-0.118339 -0.03871,-0.03964 -0.07767,-0.07911 -0.117306,-0.117822 -0.03838,-0.03929 -0.07751,-0.07789 -0.116789,-0.116272 -0.03796,-0.03885 -0.07639,-0.07728 -0.115238,-0.115239 -0.03762,-0.03849 -0.07571,-0.07658 -0.114205,-0.114205 -0.0372,-0.03805 -0.07461,-0.07597 -0.112654,-0.113171 -0.03694,-0.03779 -0.07436,-0.07519 -0.112138,-0.112138 -0.03661,-0.03744 -0.07367,-0.07449 -0.111105,-0.111104 -0.03627,-0.03708 -0.07299,-0.0738 -0.11007,-0.110071 -0.03594,-0.03673 -0.07231,-0.0731 -0.109038,-0.109037 -0.03555,-0.03633 -0.07116,-0.07245 -0.107487,-0.108004 -0.0353,-0.03606 -0.07091,-0.07167 -0.10697,-0.10697 -0.03487,-0.03563 -0.07031,-0.07054 -0.105937,-0.10542 -0.03459,-0.03533 -0.06958,-0.07031 -0.104903,-0.104903 -0.03416,-0.03489 -0.06847,-0.0697 -0.103353,-0.10387 -0.03395,-0.03466 -0.06818,-0.06889 -0.102836,-0.102836 -0.03353,-0.03422 -0.06759,-0.06776 -0.101802,-0.101286 -0.03315,-0.03383 -0.06642,-0.06761 -0.100253,-0.100769 -0.03251,-0.03317 -0.06554,-0.06566 -0.0987,-0.09819 -0.03291,-0.03359 -0.06615,-0.06681 -0.09973,-0.09974 -0.03214,-0.03278 -0.06438,-0.06552 -0.09715,-0.09767 -0.03184,-0.03246 -0.06418,-0.06428 -0.09663,-0.09612 -0.03147,-0.03208 -0.06301,-0.06413 -0.09508,-0.0956 -0.03116,-0.03176 -0.06281,-0.06288 -0.09457,-0.09405 -0.03079,-0.03138 -0.06165,-0.06274 -0.09302,-0.09353 -0.03049,-0.03106 -0.06145,-0.06149 -0.0925,-0.09198 -0.03047,-0.03104 -0.06094,-0.06203 -0.09198,-0.0925 -0.02944,-0.02997 -0.05943,-0.05944 -0.0894,-0.08888 -0.02939,-0.02992 -0.05897,-0.05949 -0.08888,-0.08888 -0.0291,-0.02962 -0.05823,-0.05926 -0.08785,-0.08837 -0.02876,-0.02927 -0.05755,-0.05857 -0.08682,-0.08733 -0.02836,-0.02886 -0.05692,-0.05741 -0.08578,-0.08578 -0.02803,-0.02851 -0.05624,-0.05672 -0.08475,-0.08475 -0.02774,-0.02822 -0.05602,-0.05597 -0.08423,-0.08372 -0.02741,-0.02787 -0.05482,-0.05579 -0.08268,-0.0832 -0.02701,-0.02746 -0.05419,-0.05464 -0.08165,-0.08165 -0.02667,-0.02711 -0.05351,-0.05394 -0.08061,-0.08061 -0.02633,-0.02676 -0.05283,-0.05325 -0.07958,-0.07958 -0.02599,-0.02641 -0.05214,-0.05255 -0.07855,-0.07855 -0.02565,-0.02606 -0.05146,-0.05186 -0.07751,-0.07751 -0.02564,-0.02604 -0.05147,-0.05188 -0.07752,-0.07752 -0.02497,-0.02534 -0.0501,-0.05049 -0.07545,-0.07545 -0.02463,-0.02499 -0.04942,-0.04979 -0.07441,-0.07442 -0.02396,-0.02431 -0.04804,-0.04839 -0.07235,-0.07235 -0.02396,-0.02431 -0.04804,-0.04839 -0.07235,-0.07235 -0.02362,-0.02396 -0.04735,-0.04769 -0.07131,-0.07131 -0.02294,-0.02326 -0.04599,-0.0463 -0.06925,-0.06925 -0.02326,-0.0236 -0.04669,-0.04701 -0.07028,-0.07028 -0.02249,-0.0228 -0.04541,-0.0452 -0.06821,-0.0677 -0.02215,-0.02245 -0.04421,-0.04503 -0.06666,-0.06718 -0.02192,-0.02221 -0.04394,-0.04423 -0.06615,-0.06615 -0.02004,-0.0203 -0.04018,-0.0404 -0.06046,-0.06046 -0.0241,-0.02446 -0.0484,-0.04876 -0.07286,-0.07286 -0.01938,-0.01959 -0.03879,-0.03904 -0.05839,-0.05839 -0.02047,-0.02073 -0.04077,-0.04154 -0.0615,-0.06201 -0.02011,-0.02036 -0.04062,-0.04035 -0.06098,-0.06046 -0.01988,-0.02012 -0.03983,-0.04007 -0.05995,-0.05994 -0.01943,-0.01966 -0.03874,-0.03948 -0.05839,-0.05891 -0.01911,-0.01933 -0.03855,-0.03825 -0.05788,-0.05736 -0.01875,-0.01896 -0.03737,-0.03809 -0.05633,-0.05684 -0.01843,-0.01863 -0.03718,-0.03686 -0.05581,-0.05529 -0.01807,-0.01827 -0.03599,-0.03671 -0.05426,-0.05478 -0.01766,-0.01785 -0.03538,-0.03557 -0.05323,-0.05323 -0.01739,-0.01757 -0.03514,-0.03481 -0.05271,-0.05219 -0.01706,-0.01724 -0.03392,-0.03461 -0.05116,-0.05168 -0.01664,-0.01681 -0.03332,-0.03349 -0.05013,-0.05013 -0.01619,-0.01636 -0.03274,-0.03238 -0.04909,-0.04858 -0.0162,-0.01636 -0.03221,-0.03289 -0.04858,-0.04909 -0.01561,-0.01576 -0.03127,-0.03141 -0.04703,-0.04702 -0.01527,-0.01542 -0.03058,-0.03072 -0.04599,-0.04599 -0.015,-0.01514 -0.03034,-0.02996 -0.04547,-0.04496 -0.01449,-0.01462 -0.02879,-0.02943 -0.04341,-0.04392 -0.01441,-0.01454 -0.02887,-0.029 -0.04341,-0.04341 -0.0139,-0.01402 -0.02784,-0.02795 -0.04186,-0.04186 -0.01368,-0.01368 -0.02727,-0.02726 -0.04095,-0.04082 -0.01322,-0.01333 -0.02646,-0.02657 -0.03979,-0.03979 -0.01288,-0.01298 -0.02578,-0.02588 -0.03876,-0.03876 -0.01254,-0.01263 -0.02509,-0.02519 -0.03772,-0.037723 -0.01219,-0.012287 -0.02441,-0.024492 -0.03669,-0.03669 -0.01185,-0.011941 -0.02372,-0.023802 -0.03566,-0.035657 -0.01151,-0.011594 -0.02303,-0.023111 -0.03462,-0.034623 -0.011,-0.011073 -0.022,-0.022074 -0.03307,-0.033073 -0.01099,-0.011068 -0.02201,-0.02208 -0.03307,-0.033073 -0.01038,-0.010451 -0.02056,-0.021135 -0.03101,-0.031523 -0.01004,-0.010104 -0.02038,-0.019928 -0.03049,-0.029972 -0.0098,-0.00986 -0.0196,-0.019656 -0.02945,-0.029456 -0.0095,-0.00951 -0.01891,-0.018965 -0.02842,-0.028422 -0.009,-0.00907 -0.01781,-0.01837 -0.02687,-0.027389 -0.0087,-0.00872 -0.01763,-0.017164 -0.02636,-0.025839 -0.0084,-0.00847 -0.01685,-0.016891 -0.02532,-0.025321 -0.008,-0.00803 -0.01574,-0.016298 -0.02377,-0.024289 -0.0077,-0.00777 -0.01548,-0.015521 -0.02325,-0.023254 -0.0072,-0.00726 -0.01445,-0.014478 -0.0217,-0.021704 -0.007,-0.00699 -0.01368,-0.014229 -0.02067,-0.021188 -0.0034,-0.00345 -0.0069,-0.00689 -0.01033,-0.010335 -0.01252,-0.012615 -0.02511,-0.025202 -0.03772,-0.037724 -0.0028,-0.00284 -0.0059,-0.00543 -0.0088,-0.00827 -0.0056,-0.00561 -0.01093,-0.011467 -0.01654,-0.017052 -0.0052,-0.00527 -0.01075,-0.010253 -0.01602,-0.015502 -0.005,-0.00501 -0.01,-0.01 -0.01499,-0.014986 -0.0045,-0.00448 -0.009,-0.00896 -0.01344,-0.013436 -0.0041,-0.00414 -0.0083,-0.00827 -0.0124,-0.012401 -0.0039,-0.00388 -0.0075,-0.00802 -0.01137,-0.011885 -0.0019,-0.00191 -0.0038,-0.00379 -0.0057,-0.00568 -0.0016,-0.00164 -0.0035,-0.00301 -0.0052,-0.00465 -0.0016,-0.00164 -0.003,-0.00354 -0.0047,-0.00517 -0.0013,-0.0013 -0.0034,-0.00284 -0.0047,-0.00414 -3.44e-4,-3.44e-4 -6.88e-4,-6.879e-4 -10e-4,-0.00103 -0.0011,-0.00114 -0.002,-0.00249 -0.0031,-0.00362 -0.0013,-0.0013 -0.0028,-0.00233 -0.0041,-0.00362 -0.0013,-0.0013 -0.0023,-0.00285 -0.0036,-0.00414 -0.0043,-0.00431 -0.0086,-0.00862 -0.01292,-0.01292 -8.73e-4,-8.731e-4 -0.0017,-0.00172 -0.0026,-0.00259 -6.88e-4,-6.879e-4 -0.0014,-0.00138 -0.0021,-0.00206 -5.29e-4,-5.292e-4 -0.001,-0.00103 -0.0016,-0.00156 -6.88e-4,-6.879e-4 -0.0014,-0.00138 -0.0021,-0.00206 -3.44e-4,-3.44e-4 -6.88e-4,-6.879e-4 -10e-4,-0.00103 -5.29e-4,-5.292e-4 -0.001,-0.00103 -0.0016,-0.00156 0,0 -5.29e-4,-5.292e-4 -5.29e-4,-5.292e-4 -3.44e-4,-3.44e-4 -6.88e-4,-6.879e-4 -0.001,-0.00103 -0.0156,-0.015602 -0.03231,-0.030019 -0.04806,-0.045475 -0.0027,-0.00265 -0.0056,-0.00511 -0.0083,-0.00775 -0.0591,-0.057778 -0.118213,-0.1153732 -0.179317,-0.1710489 -0.0022,-0.00196 -0.004,-0.00424 -0.0062,-0.0062 -5.29e-4,-5.028e-4 -0.001,-0.00106 -0.0016,-0.00156 -0.057,-0.051805 -0.115978,-0.101483 -0.174666,-0.151412 a 7.0114585,7.0114585 0 0 0 -0.03721,-0.032556 c -0.01376,-0.011539 -0.02698,-0.023704 -0.04083,-0.03514 -5.55e-4,-4.498e-4 -9.79e-4,-0.00108 -0.0016,-0.00156 -0.15869,-0.1309627 -0.324069,-0.2542196 -0.494026,-0.3710366 -0.0026,-0.00183 -0.0051,-0.00387 -0.0078,-0.00568 a 7.0114585,7.0114585 0 0 0 -0.0036,-0.00206 C 18.541173,6.9201925 17.67386,6.5456441 16.738981,6.3571875 16.512889,6.3116109 16.283018,6.2765719 16.049617,6.2533179 c -0.0012,-1.201e-4 -0.0024,-3.969e-4 -0.0036,-5.292e-4 a 7.0114585,7.0114585 0 0 0 -0.01033,-5.291e-4 c -0.220301,-0.021508 -0.44341,-0.03295 -0.66921,-0.03359 a 7.0114585,7.0114585 0 0 0 -0.02062,-9.617e-4 z"
       style="display:inline;opacity:0.17000002;fill:#000000;fill-opacity:1;stroke:none;stroke-width:0.40322819;stroke-miterlimit:4;stroke-dasharray:none;stroke-opacity:1;enable-background:new" />
    <g
       style="fill:#000000"
       id="g1227" />
  </g>
  <g
     inkscape:label="white"
     inkscape:groupmode="layer"
     id="layer1"
     transform="translate(0,-268.42498)"
     style="display:inline">
    <path
       style="display:inline;fill:#f2f2f2;fill-opacity:1;stroke:none;stroke-width:0.40322819;stroke-miterlimit:4;stroke-dasharray:none;stroke-opacity:1;enable-background:new"
       d="m 22.357289,281.65414 a 7.0114586,7.0114586 0 0 1 -7.01145,7.01145 7.0114586,7.0114586 0 0 1 -7.0114606,-7.01145 7.0114586,7.0114586 0 0 1 7.0114606,-7.01145 7.0114586,7.0114586 0 0 1 7.01145,7.01145 z"
       id="path818"
       inkscape:connector-curvature="0" />
  </g>
  <g
     style="display:inline"
     inkscape:label="yolk-shadow"
     id="layer4"
     inkscape:groupmode="layer">
    <path
       style="display:inline;opacity:0.07000002;fill:#000000;fill-opacity:1;stroke:none;stroke-width:0.40322819;stroke-miterlimit:4;stroke-dasharray:none;stroke-opacity:1;enable-background:new"
       d="m 17.804081,8.757088 c -0.584635,0 -1.169128,0.1516366 -1.69292,0.4542356 -1.047583,0.6051977 -1.692344,1.7233204 -1.691369,2.9331544 1.88e-4,0.233914 0.0244,0.462122 0.06976,0.682645 0.04521,0.219781 0.111321,0.432103 0.196887,0.63407 0,0 5.17e-4,5.17e-4 5.17e-4,5.17e-4 0.04278,0.100931 0.09009,0.199436 0.14211,0.295072 0,0 5.17e-4,5.17e-4 5.17e-4,5.17e-4 0.05204,0.09562 0.108277,0.18826 0.168982,0.278019 2.64e-4,3.91e-4 0.0013,0.0012 0.0015,0.0015 0.02004,0.02966 0.04313,0.0568 0.06408,0.08578 0.04226,0.05835 0.08338,0.117658 0.129191,0.173116 3.07e-4,3.72e-4 7.27e-4,6.62e-4 10e-4,10e-4 9.27e-4,0.0011 0.0022,0.002 0.0031,0.0031 0.03534,0.04263 0.07427,0.08216 0.111621,0.12299 0.0047,0.0051 0.0092,0.01041 0.01395,0.0155 0.01407,0.01522 0.02752,0.03104 0.04186,0.04599 0.0043,0.0045 0.0081,0.0095 0.0124,0.01395 0.01188,0.01224 0.02256,0.02567 0.03462,0.03772 4.35e-4,4.34e-4 0.0011,5.99e-4 0.0016,10e-4 0,0 5.16e-4,5.17e-4 5.16e-4,5.17e-4 0,0 0,5.17e-4 0,5.17e-4 0.0014,0.0014 0.0027,0.0028 0.0041,0.0041 5.16e-4,5.16e-4 10e-4,0.001 0.0016,0.0015 5.17e-4,5.16e-4 10e-4,0.001 0.0015,0.0015 5.17e-4,5.17e-4 10e-4,0.001 0.0016,0.0016 0.0012,0.0012 0.0024,0.0024 0.0036,0.0036 0.0014,0.0014 0.0028,0.0028 0.0041,0.0041 0.0015,0.0015 0.0031,0.0031 0.0047,0.0047 0.0018,0.0018 0.0039,0.0034 0.0057,0.0052 0.0019,0.0019 0.0038,0.0038 0.0057,0.0057 0.0021,0.0021 0.0041,0.0041 0.0062,0.0062 0.0023,0.0023 0.0044,0.0049 0.0067,0.0072 0.0024,0.0024 0.0048,0.0048 0.0072,0.0072 0.0026,0.0026 0.0052,0.0052 0.0078,0.0078 0.0028,0.0028 0.0059,0.0054 0.0088,0.0083 0.0029,0.0029 0.0058,0.0059 0.0088,0.0088 0.0031,0.0031 0.0062,0.0062 0.0093,0.0093 0.0034,0.0034 0.0064,0.007 0.0098,0.01033 0.0035,0.0035 0.0073,0.0068 0.01085,0.01034 0.0036,0.0036 0.0072,0.0072 0.01085,0.01085 0.004,0.004 0.0079,0.0079 0.01189,0.01188 0.004,0.004 0.0079,0.0079 0.01189,0.01189 0.0041,0.0041 0.0082,0.0083 0.0124,0.0124 0.0044,0.0044 0.009,0.0085 0.01343,0.01292 0.0046,0.0046 0.0089,0.0094 0.01344,0.01395 0.0046,0.0047 0.0093,0.0093 0.01395,0.01395 0.005,0.005 0.01,0.01001 0.01499,0.01499 0.0051,0.0051 0.0104,0.0099 0.0155,0.01499 0.0044,0.0044 0.0085,0.009 0.01292,0.01344 0.007,0.0071 0.01408,0.01415 0.02119,0.02119 0.0046,0.0047 0.0093,0.0093 0.01395,0.01395 0.0058,0.0058 0.01177,0.0113 0.01757,0.01705 0.0059,0.006 0.01159,0.01216 0.01757,0.01809 0.0061,0.0061 0.01245,0.01199 0.0186,0.01809 0.0063,0.0063 0.01228,0.01285 0.0186,0.01912 0.0064,0.0065 0.01314,0.01268 0.01964,0.01912 0.0066,0.0067 0.01297,0.01354 0.01964,0.02015 0.0068,0.0068 0.01383,0.01337 0.02067,0.02015 0.0062,0.0062 0.01237,0.01241 0.0186,0.0186 0.0088,0.0089 0.01742,0.01805 0.02635,0.02687 0.0064,0.0065 0.01314,0.01269 0.01964,0.01912 0.0076,0.0076 0.01511,0.01519 0.02274,0.02274 0.0076,0.0076 0.01511,0.01519 0.02274,0.02274 0.0079,0.008 0.0158,0.01588 0.02377,0.02377 0.0079,0.008 0.0158,0.01588 0.02377,0.02377 0.0082,0.0083 0.01648,0.01657 0.02481,0.02481 0.0076,0.0076 0.01511,0.01518 0.02274,0.02274 0.01029,0.01042 0.02058,0.02072 0.03101,0.03101 0.0077,0.0078 0.01545,0.01554 0.02325,0.02325 0.0088,0.0089 0.01794,0.01753 0.02687,0.02635 0.009,0.0091 0.01777,0.01839 0.02687,0.02739 0.0094,0.0095 0.01896,0.01856 0.02842,0.02791 0.0093,0.0094 0.01845,0.01908 0.02791,0.02842 0.0095,0.0096 0.01931,0.01891 0.02894,0.02842 0.0098,0.0099 0.01956,0.01969 0.02946,0.02946 0.01,0.01007 0.0199,0.02003 0.02997,0.02997 0.01012,0.01024 0.02025,0.02038 0.03049,0.03049 0.01012,0.01024 0.02025,0.02038 0.03049,0.03049 0.01054,0.01067 0.02084,0.02151 0.03152,0.03204 0.01053,0.01067 0.02136,0.02099 0.03204,0.03152 0.0108,0.01093 0.02162,0.02177 0.03256,0.03255 0.01097,0.01111 0.02195,0.02211 0.03307,0.03307 0.01113,0.01128 0.0223,0.02247 0.03359,0.03359 0.01036,0.0105 0.02051,0.02116 0.03101,0.03152 0.01309,0.01329 0.02649,0.0262 0.03979,0.03927 0.0108,0.01093 0.02161,0.02178 0.03256,0.03256 0.01191,0.01208 0.02409,0.02376 0.03617,0.03566 0.0119,0.01207 0.02358,0.02428 0.03566,0.03617 0.01225,0.01243 0.02477,0.02445 0.03721,0.03669 0.01224,0.01242 0.02426,0.02498 0.03669,0.03721 0.01259,0.01278 0.02545,0.02515 0.03824,0.03772 0.01258,0.01277 0.02495,0.02567 0.03772,0.03824 0.01293,0.01313 0.02614,0.02584 0.03927,0.03876 0.01292,0.01312 0.02563,0.02637 0.03876,0.03927 0.01327,0.01348 0.02682,0.02654 0.04031,0.03979 0.01249,0.01269 0.02503,0.02523 0.03772,0.03772 0.01522,0.0155 0.03048,0.03078 0.04599,0.04599 0.01284,0.01303 0.0257,0.02594 0.03876,0.03876 0.01385,0.01409 0.02776,0.02801 0.04186,0.04186 0.01411,0.01435 0.02801,0.02879 0.04237,0.04289 0.0141,0.01434 0.02854,0.02828 0.04289,0.04237 0.01436,0.01461 0.02879,0.02906 0.04341,0.04341 0.0147,0.01496 0.02947,0.02976 0.04444,0.04444 0.0147,0.01496 0.02947,0.02976 0.04444,0.04444 0.01487,0.01514 0.02981,0.0301 0.04496,0.04496 0.01513,0.01541 0.03057,0.03036 0.04599,0.04547 0.01521,0.01549 0.03049,0.03079 0.04599,0.04599 0.01538,0.01567 0.03083,0.03114 0.04651,0.04651 0.01556,0.01585 0.03116,0.03148 0.04702,0.04703 0.01589,0.0162 0.03185,0.03218 0.04806,0.04806 0.01589,0.01619 0.03185,0.03219 0.04806,0.04806 0.01528,0.01559 0.03041,0.03122 0.04599,0.04651 0.01774,0.01813 0.03561,0.03602 0.05374,0.05374 0.01581,0.0161 0.03193,0.03176 0.04806,0.04754 0.01663,0.01697 0.03314,0.03402 0.05013,0.05064 0.01672,0.01706 0.03357,0.03393 0.05064,0.05064 0.01698,0.01733 0.03433,0.03419 0.05168,0.05116 0.01707,0.01743 0.03424,0.03462 0.05168,0.05168 0.01731,0.01769 0.0345,0.03541 0.05219,0.05271 0.0175,0.01787 0.03534,0.03523 0.05323,0.05271 0.01775,0.01814 0.03559,0.03601 0.05374,0.05374 0.01758,0.01796 0.03525,0.03566 0.05323,0.05323 0.01816,0.01857 0.03671,0.03663 0.05529,0.05478 0.01816,0.01856 0.0362,0.03715 0.05478,0.05529 0.01825,0.01865 0.03663,0.03706 0.05529,0.05529 0.01841,0.01883 0.03697,0.03741 0.05581,0.05581 0.01875,0.01918 0.03765,0.03811 0.05684,0.05684 0.01875,0.01918 0.03765,0.03811 0.05684,0.05684 0.01908,0.01954 0.03833,0.03881 0.05788,0.05788 0.01917,0.01963 0.03875,0.03872 0.0584,0.05788 0.01933,0.01979 0.03859,0.0396 0.05839,0.05891 0.01959,0.02006 0.03935,0.03985 0.05943,0.05943 0.01969,0.02017 0.03976,0.03976 0.05994,0.05943 0.01918,0.01965 0.03823,0.03922 0.05788,0.0584 0.02162,0.0222 0.04341,0.04403 0.06563,0.06563 0.01935,0.01979 0.03908,0.03908 0.05891,0.05839 0.02027,0.02078 0.0407,0.04124 0.0615,0.0615 0.0206,0.02113 0.04138,0.04194 0.06253,0.06253 0.02051,0.02104 0.04096,0.04203 0.06201,0.06253 0.0211,0.02165 0.04241,0.04299 0.06408,0.06408 0.02111,0.02166 0.0424,0.04299 0.06408,0.06408 0.02118,0.02174 0.04284,0.04291 0.0646,0.06408 0.02127,0.02184 0.04275,0.04334 0.0646,0.0646 0.02144,0.02202 0.04309,0.04368 0.06511,0.06511 0.02194,0.02255 0.04411,0.04473 0.06666,0.06666 0.01277,0.01311 0.02582,0.02587 0.03876,0.03876 a 7.0114585,7.0114585 0 0 0 2.71353,-5.535579 7.0114585,7.0114585 0 0 0 -0.168466,-1.487765 c -0.0093,-0.0093 -0.01852,-0.01867 -0.02791,-0.02791 -0.01498,-0.01532 -0.03019,-0.03042 -0.04547,-0.04547 -0.0143,-0.01463 -0.02883,-0.02903 -0.04341,-0.04341 -0.01472,-0.01506 -0.02942,-0.03016 -0.04444,-0.04496 -0.01456,-0.01488 -0.0296,-0.0293 -0.04444,-0.04392 -0.01371,-0.01401 -0.02737,-0.02807 -0.04134,-0.04186 -0.01422,-0.01453 -0.02892,-0.0286 -0.04341,-0.04289 -0.01372,-0.01402 -0.02736,-0.02806 -0.04134,-0.04186 -0.01363,-0.01393 -0.02745,-0.02764 -0.04134,-0.04134 -0.01371,-0.01401 -0.02789,-0.02756 -0.04186,-0.04134 -0.01295,-0.01323 -0.02609,-0.02625 -0.03927,-0.03927 -0.01346,-0.01375 -0.02712,-0.02729 -0.04083,-0.04082 -0.01262,-0.01287 -0.02541,-0.02556 -0.03824,-0.03824 -0.01312,-0.0134 -0.02643,-0.0266 -0.03979,-0.03979 -0.01228,-0.01253 -0.02472,-0.02486 -0.03721,-0.03721 -0.0127,-0.01296 -0.02532,-0.02599 -0.03824,-0.03876 -0.01202,-0.01226 -0.02447,-0.02409 -0.03669,-0.03617 -0.01236,-0.01261 -0.02464,-0.0253 -0.03721,-0.03772 -0.0116,-0.01182 -0.02336,-0.02348 -0.03514,-0.03514 -0.01321,-0.01347 -0.02686,-0.02653 -0.04031,-0.03979 -0.0091,-0.0093 -0.01813,-0.01871 -0.02739,-0.02791 -0.0126,-0.01288 -0.02542,-0.02555 -0.03824,-0.03824 -0.01126,-0.01147 -0.02267,-0.02279 -0.03411,-0.03411 -0.01093,-0.01113 -0.02198,-0.02209 -0.03307,-0.03307 -0.01228,-0.01251 -0.02472,-0.02488 -0.03721,-0.03721 -0.0082,-0.0083 -0.0165,-0.01655 -0.02481,-0.02481 -0.0116,-0.01184 -0.02336,-0.02346 -0.03514,-0.03514 -0.01186,-0.01207 -0.02412,-0.02375 -0.03617,-0.03566 -0.0077,-0.0078 -0.01547,-0.01551 -0.02326,-0.02326 -0.01109,-0.01132 -0.02182,-0.02294 -0.03307,-0.03411 -0.01007,-0.01024 -0.02028,-0.02037 -0.03049,-0.03049 -0.0097,-0.0098 -0.01967,-0.01924 -0.02946,-0.02894 -0.0094,-0.0096 -0.01891,-0.01898 -0.02842,-0.02842 -0.0094,-0.0096 -0.01891,-0.01898 -0.02842,-0.02842 -0.0091,-0.0093 -0.01814,-0.01872 -0.02739,-0.02791 -0.0091,-0.0093 -0.01865,-0.0182 -0.02791,-0.02739 -0.0087,-0.0089 -0.01754,-0.01759 -0.02636,-0.02636 -0.0086,-0.0087 -0.01719,-0.01724 -0.02584,-0.02584 -0.0086,-0.0088 -0.01711,-0.01768 -0.02584,-0.02636 -0.0083,-0.0084 -0.01694,-0.01647 -0.02532,-0.02481 -0.0082,-0.0083 -0.01651,-0.01656 -0.0248,-0.0248 -0.008,-0.0082 -0.01616,-0.0162 -0.02429,-0.02429 -0.0077,-0.0078 -0.01548,-0.01552 -0.02325,-0.02325 -0.0075,-0.0076 -0.01513,-0.01517 -0.02274,-0.02274 -0.0074,-0.0076 -0.0147,-0.01525 -0.02222,-0.02274 -0.0073,-0.0074 -0.01487,-0.01439 -0.02222,-0.0217 -0.0072,-0.0073 -0.01445,-0.01448 -0.0217,-0.0217 -0.0069,-0.007 -0.01368,-0.01422 -0.02067,-0.02119 -0.0068,-0.0068 -0.01385,-0.01336 -0.02067,-0.02015 -0.0066,-0.0067 -0.01299,-0.01353 -0.01964,-0.02015 -0.0064,-0.0065 -0.01316,-0.01267 -0.01964,-0.01912 -0.0062,-0.0063 -0.0123,-0.01284 -0.0186,-0.01912 -0.006,-0.0061 -0.01205,-0.01206 -0.01809,-0.01809 -0.006,-0.0061 -0.01205,-0.01206 -0.01809,-0.01809 -0.0056,-0.0057 -0.01136,-0.01137 -0.01705,-0.01705 -0.0056,-0.0057 -0.01136,-0.01137 -0.01705,-0.01705 -0.0053,-0.0054 -0.01067,-0.01068 -0.01602,-0.01602 -0.0051,-0.0052 -0.01032,-0.01033 -0.0155,-0.0155 -0.0051,-0.0052 -0.01033,-0.01033 -0.0155,-0.0155 -0.007,-0.0071 -0.0141,-0.01415 -0.02119,-0.02119 -0.0069,-0.007 -0.01368,-0.0142 -0.02067,-0.02119 -0.0044,-0.0044 -0.009,-0.0085 -0.01344,-0.01292 -0.0042,-0.0042 -0.0082,-0.0087 -0.0124,-0.01292 -0.004,-0.0041 -0.0084,-0.0078 -0.0124,-0.01189 -0.0055,-0.0055 -0.01101,-0.01103 -0.01654,-0.01654 -0.0053,-0.0054 -0.01068,-0.01067 -0.01602,-0.01602 -0.0034,-0.0035 -0.0069,-0.0069 -0.01034,-0.01033 -0.0031,-0.0031 -0.0062,-0.0062 -0.0093,-0.0093 -0.0029,-0.0029 -0.0059,-0.0059 -0.0088,-0.0088 -0.004,-0.0041 -0.0078,-0.0084 -0.01189,-0.0124 -0.0026,-0.0026 -0.0052,-0.0052 -0.0078,-0.0078 -0.0012,-0.0012 -0.0024,-0.0024 -0.0036,-0.0036 -10e-4,-0.001 -0.0021,-0.0021 -0.0031,-0.0031 -0.0012,-0.0012 -0.0024,-0.0024 -0.0036,-0.0036 -0.001,-0.001 -0.0021,-0.0021 -0.0031,-0.0031 -0.0011,-0.0011 -0.0025,-0.002 -0.0036,-0.0031 -9.4e-4,-9.43e-4 -0.0016,-0.0022 -0.0026,-0.0031 -8.6e-4,-8.68e-4 -0.0017,-0.0017 -0.0026,-0.0026 -8.59e-4,-8.61e-4 -0.0017,-0.0017 -0.0026,-0.0026 -9.41e-4,-9.51e-4 -0.0022,-0.0016 -0.0031,-0.0026 -0.0016,-0.0016 -0.003,-0.0035 -0.0047,-0.0052 -6.86e-4,-6.88e-4 -0.0014,-0.0014 -0.0021,-0.0021 -6.88e-4,-6.93e-4 -0.0014,-0.0014 -0.0021,-0.0021 -5.14e-4,-5.17e-4 -0.001,-10e-4 -0.0015,-0.0015 -6.87e-4,-6.93e-4 -0.0014,-0.0014 -0.0021,-0.0021 -5.14e-4,-5.16e-4 -10e-4,-10e-4 -0.0016,-0.0016 -5.16e-4,-5.2e-4 -10e-4,-10e-4 -0.0015,-0.0015 -3.44e-4,-3.45e-4 -6.9e-4,-6.89e-4 -10e-4,-10e-4 -5.16e-4,-5.19e-4 -0.001,-10e-4 -0.0016,-0.0015 -3.43e-4,-3.44e-4 -6.91e-4,-6.89e-4 -0.001,-10e-4 l -5.17e-4,-5.17e-4 c -4.33e-4,-4.36e-4 -0.0011,-5.98e-4 -0.0015,-10e-4 -3.33e-4,-3.35e-4 -7e-4,-6.98e-4 -0.001,-0.001 -2.61e-4,-2.62e-4 -2.57e-4,-7.71e-4 -5.17e-4,-10e-4 0,0 -5.17e-4,-5.16e-4 -5.17e-4,-5.16e-4 -0.04979,-0.05006 -0.101444,-0.09817 -0.154512,-0.145211 -9.06e-4,-7.99e-4 -0.0017,-0.0018 -0.0026,-0.0026 -5.45e-4,-4.8e-4 -10e-4,-0.0011 -0.0016,-0.0015 -5.44e-4,-4.8e-4 -10e-4,-0.0011 -0.0016,-0.0016 -0.03406,-0.03004 -0.07005,-0.05807 -0.10542,-0.08682 -0.001,-8.49e-4 -0.0021,-0.0017 -0.0031,-0.0026 -0.13686,-0.1109567 -0.28233,-0.2130647 -0.4377,-0.3028237 -0.06514,-0.03763 -0.131017,-0.07299 -0.197921,-0.105937 -3.46e-4,-1.7e-4 -6.86e-4,-3.46e-4 -0.001,-5.16e-4 -0.201424,-0.09912 -0.41058,-0.1768647 -0.623735,-0.2335776 -3.62e-4,-9.63e-5 -6.71e-4,-4.207e-4 -10e-4,-5.168e-4 C 18.388446,8.7949689 18.096278,8.756931 17.80396,8.756931 Z"
       id="path1461"
       inkscape:connector-curvature="0" />
  </g>
  <g
     style="display:inline"
     inkscape:label="yolk"
     id="layer3"
     inkscape:groupmode="layer">
    <path
       inkscape:connector-curvature="0"
       style="color:#000000;display:inline;overflow:visible;visibility:visible;fill:#ffffff;fill-opacity:1;fill-rule:nonzero;stroke:none;stroke-width:5.0581131;marker:none;enable-background:accumulate"
       id="path7157"
       d="m 20.853959,11.809806 a 3.38455,3.38455 0 0 1 -6.7691,0 3.38455,3.38455 0 1 1 6.7691,0 z" />
    <path
       inkscape:connector-curvature="0"
       style="color:#000000;display:inline;overflow:visible;visibility:visible;fill:#facd00;fill-opacity:1;fill-rule:nonzero;stroke:none;stroke-width:5.0581131;marker:none;enable-background:accumulate"
       id="path7159"
       d="m 21.188469,12.144286 a 3.3845511,3.3845511 0 0 1 -6.7691,0 3.3845511,3.3845511 0 1 1 6.7691,0 z" />
  </g>
</svg>
