<?xml version="1.0" encoding="UTF-8" standalone="no"?>
<!-- Created with Inkscape (http://www.inkscape.org/) -->

<svg
   xmlns:dc="http://purl.org/dc/elements/1.1/"
   xmlns:cc="http://creativecommons.org/ns#"
   xmlns:rdf="http://www.w3.org/1999/02/22-rdf-syntax-ns#"
   xmlns:svg="http://www.w3.org/2000/svg"
   xmlns="http://www.w3.org/2000/svg"
   xmlns:sodipodi="http://sodipodi.sourceforge.net/DTD/sodipodi-0.dtd"
   xmlns:inkscape="http://www.inkscape.org/namespaces/inkscape"
   width="108"
   height="108"
   viewBox="0 0 28.574999 28.575001"
   version="1.1"
   id="svg832"
   inkscape:version="0.92.3 (2405546, 2018-03-11)"
   sodipodi:docname="lonely_egg.svg">
  <sodipodi:namedview
     id="base"
     pagecolor="#ffffff"
     bordercolor="#666666"
     borderopacity="1.0"
     inkscape:pageopacity="0.0"
     inkscape:pageshadow="2"
     inkscape:zoom="1.979899"
     inkscape:cx="-116.62845"
     inkscape:cy="55.864347"
     inkscape:document-units="mm"
     inkscape:current-layer="layer1"
     showgrid="false"
     units="px"
     inkscape:window-width="1883"
     inkscape:window-height="1052"
     inkscape:window-x="37"
     inkscape:window-y="0"
     inkscape:window-maximized="1" />
  <defs
     id="defs826" />
  <metadata
     id="metadata829">
    <rdf:RDF>
      <cc:Work
         rdf:about="">
        <dc:format>image/svg+xml</dc:format>
        <dc:type
           rdf:resource="http://purl.org/dc/dcmitype/StillImage" />
        <dc:title />
      </cc:Work>
    </rdf:RDF>
  </metadata>
  <g
     inkscape:groupmode="layer"
     id="layer5"
     inkscape:label="circle-background"
     style="display:none">
    <circle
       style="opacity:1;fill:#808080;fill-opacity:1;stroke:none;stroke-width:0.16865559;stroke-miterlimit:4;stroke-dasharray:none;stroke-opacity:1"
       id="path822"
       cx="14.2875"
       cy="14.2875"
       r="8.7312498" />
  </g>
  <g
     inkscape:label="white"
     inkscape:groupmode="layer"
     id="layer1"
     transform="translate(0,-268.42498)"
     style="display:inline">
    <path
       style="display:inline;fill:#f2f2f2;fill-opacity:1;stroke:none;stroke-width:0.40322819;stroke-miterlimit:4;stroke-dasharray:none;stroke-opacity:1;enable-background:new"
       d="m 21.298948,282.71248 a 7.0114586,7.0114586 0 0 1 -7.01145,7.01145 7.0114586,7.0114586 0 0 1 -7.0114603,-7.01145 7.0114586,7.0114586 0 0 1 7.0114603,-7.01145 7.0114586,7.0114586 0 0 1 7.01145,7.01145 z"
       id="path818"
       inkscape:connector-curvature="0" />
  </g>
  <g
     style="display:inline"
     inkscape:label="yolk-shadow"
     id="layer4"
     inkscape:groupmode="layer">
    <path
       style="display:inline;opacity:0.07000002;fill:#000000;fill-opacity:1;stroke:none;stroke-width:0.40322819;stroke-miterlimit:4;stroke-dasharray:none;stroke-opacity:1;enable-background:new"
       d="m 16.74574,9.815428 c -0.584635,0 -1.169128,0.1516366 -1.69292,0.454236 -1.047583,0.605197 -1.692344,1.72332 -1.691369,2.933154 1.88e-4,0.233914 0.0244,0.462122 0.06976,0.682645 0.04521,0.219781 0.111321,0.432103 0.196887,0.63407 0,0 5.17e-4,5.17e-4 5.17e-4,5.17e-4 0.04278,0.100931 0.09009,0.199436 0.14211,0.295072 0,0 5.17e-4,5.17e-4 5.17e-4,5.17e-4 0.05204,0.09562 0.108277,0.18826 0.168982,0.278019 2.64e-4,3.91e-4 0.0013,0.0012 0.0015,0.0015 0.02004,0.02966 0.04313,0.0568 0.06408,0.08578 0.04226,0.05835 0.08338,0.117658 0.129191,0.173116 3.07e-4,3.72e-4 7.27e-4,6.62e-4 10e-4,0.001 9.27e-4,0.0011 0.0022,0.002 0.0031,0.0031 0.03534,0.04263 0.07427,0.08216 0.111621,0.12299 0.0047,0.0051 0.0092,0.01041 0.01395,0.0155 0.01407,0.01522 0.02752,0.03104 0.04186,0.04599 0.0043,0.0045 0.0081,0.0095 0.0124,0.01395 0.01188,0.01224 0.02256,0.02567 0.03462,0.03772 4.35e-4,4.34e-4 0.0011,5.99e-4 0.0016,0.001 0,0 5.16e-4,5.17e-4 5.16e-4,5.17e-4 0,0 0,5.17e-4 0,5.17e-4 0.0014,0.0014 0.0027,0.0028 0.0041,0.0041 5.16e-4,5.16e-4 10e-4,10e-4 0.0016,0.0015 5.17e-4,5.16e-4 10e-4,10e-4 0.0015,0.0015 5.17e-4,5.17e-4 10e-4,10e-4 0.0016,0.0016 0.0012,0.0012 0.0024,0.0024 0.0036,0.0036 0.0014,0.0014 0.0028,0.0028 0.0041,0.0041 0.0015,0.0015 0.0031,0.0031 0.0047,0.0047 0.0018,0.0018 0.0039,0.0034 0.0057,0.0052 0.0019,0.0019 0.0038,0.0038 0.0057,0.0057 0.0021,0.0021 0.0041,0.0041 0.0062,0.0062 0.0023,0.0023 0.0044,0.0049 0.0067,0.0072 0.0024,0.0024 0.0048,0.0048 0.0072,0.0072 0.0026,0.0026 0.0052,0.0052 0.0078,0.0078 0.0028,0.0028 0.0059,0.0054 0.0088,0.0083 0.0029,0.0029 0.0058,0.0059 0.0088,0.0088 0.0031,0.0031 0.0062,0.0062 0.0093,0.0093 0.0034,0.0034 0.0064,0.007 0.0098,0.01033 0.0035,0.0035 0.0073,0.0068 0.01085,0.01034 0.0036,0.0036 0.0072,0.0072 0.01085,0.01085 0.004,0.004 0.0079,0.0079 0.01189,0.01188 0.004,0.004 0.0079,0.0079 0.01189,0.01189 0.0041,0.0041 0.0082,0.0083 0.0124,0.0124 0.0044,0.0044 0.009,0.0085 0.01343,0.01292 0.0046,0.0046 0.0089,0.0094 0.01344,0.01395 0.0046,0.0047 0.0093,0.0093 0.01395,0.01395 0.005,0.005 0.01,0.01001 0.01499,0.01499 0.0051,0.0051 0.0104,0.0099 0.0155,0.01499 0.0044,0.0044 0.0085,0.009 0.01292,0.01344 0.007,0.0071 0.01408,0.01415 0.02119,0.02119 0.0046,0.0047 0.0093,0.0093 0.01395,0.01395 0.0058,0.0058 0.01177,0.0113 0.01757,0.01705 0.0059,0.006 0.01159,0.01216 0.01757,0.01809 0.0061,0.0061 0.01245,0.01199 0.0186,0.01809 0.0063,0.0063 0.01228,0.01285 0.0186,0.01912 0.0064,0.0065 0.01314,0.01268 0.01964,0.01912 0.0066,0.0067 0.01297,0.01354 0.01964,0.02015 0.0068,0.0068 0.01383,0.01337 0.02067,0.02015 0.0062,0.0062 0.01237,0.01241 0.0186,0.0186 0.0088,0.0089 0.01742,0.01805 0.02635,0.02687 0.0064,0.0065 0.01314,0.01269 0.01964,0.01912 0.0076,0.0076 0.01511,0.01519 0.02274,0.02274 0.0076,0.0076 0.01511,0.01519 0.02274,0.02274 0.0079,0.008 0.0158,0.01588 0.02377,0.02377 0.0079,0.008 0.0158,0.01588 0.02377,0.02377 0.0082,0.0083 0.01648,0.01657 0.02481,0.02481 0.0076,0.0076 0.01511,0.01518 0.02274,0.02274 0.01029,0.01042 0.02058,0.02072 0.03101,0.03101 0.0077,0.0078 0.01545,0.01554 0.02325,0.02325 0.0088,0.0089 0.01794,0.01753 0.02687,0.02635 0.009,0.0091 0.01777,0.01839 0.02687,0.02739 0.0094,0.0095 0.01896,0.01856 0.02842,0.02791 0.0093,0.0094 0.01845,0.01908 0.02791,0.02842 0.0095,0.0096 0.01931,0.01891 0.02894,0.02842 0.0098,0.0099 0.01956,0.01969 0.02946,0.02946 0.01,0.01007 0.0199,0.02003 0.02997,0.02997 0.01012,0.01024 0.02025,0.02038 0.03049,0.03049 0.01012,0.01024 0.02025,0.02038 0.03049,0.03049 0.01054,0.01067 0.02084,0.02151 0.03152,0.03204 0.01053,0.01067 0.02136,0.02099 0.03204,0.03152 0.0108,0.01093 0.02162,0.02177 0.03256,0.03255 0.01097,0.01111 0.02195,0.02211 0.03307,0.03307 0.01113,0.01128 0.0223,0.02247 0.03359,0.03359 0.01036,0.0105 0.02051,0.02116 0.03101,0.03152 0.01309,0.01329 0.02649,0.0262 0.03979,0.03927 0.0108,0.01093 0.02161,0.02178 0.03256,0.03256 0.01191,0.01208 0.02409,0.02376 0.03617,0.03566 0.0119,0.01207 0.02358,0.02428 0.03566,0.03617 0.01225,0.01243 0.02477,0.02445 0.03721,0.03669 0.01224,0.01242 0.02426,0.02498 0.03669,0.03721 0.01259,0.01278 0.02545,0.02515 0.03824,0.03772 0.01258,0.01277 0.02495,0.02567 0.03772,0.03824 0.01293,0.01313 0.02614,0.02584 0.03927,0.03876 0.01292,0.01312 0.02563,0.02637 0.03876,0.03927 0.01327,0.01348 0.02682,0.02654 0.04031,0.03979 0.01249,0.01269 0.02503,0.02523 0.03772,0.03772 0.01522,0.0155 0.03048,0.03078 0.04599,0.04599 0.01284,0.01303 0.0257,0.02594 0.03876,0.03876 0.01385,0.01409 0.02776,0.02801 0.04186,0.04186 0.01411,0.01435 0.02801,0.02879 0.04237,0.04289 0.0141,0.01434 0.02854,0.02828 0.04289,0.04237 0.01436,0.01461 0.02879,0.02906 0.04341,0.04341 0.0147,0.01496 0.02947,0.02976 0.04444,0.04444 0.0147,0.01496 0.02947,0.02976 0.04444,0.04444 0.01487,0.01514 0.02981,0.0301 0.04496,0.04496 0.01513,0.01541 0.03057,0.03036 0.04599,0.04547 0.01521,0.01549 0.03049,0.03079 0.04599,0.04599 0.01538,0.01567 0.03083,0.03114 0.04651,0.04651 0.01556,0.01585 0.03116,0.03148 0.04702,0.04703 0.01589,0.0162 0.03185,0.03218 0.04806,0.04806 0.01589,0.01619 0.03185,0.03219 0.04806,0.04806 0.01528,0.01559 0.03041,0.03122 0.04599,0.04651 0.01774,0.01813 0.03561,0.03602 0.05374,0.05374 0.01581,0.0161 0.03193,0.03176 0.04806,0.04754 0.01663,0.01697 0.03314,0.03402 0.05013,0.05064 0.01672,0.01706 0.03357,0.03393 0.05064,0.05064 0.01698,0.01733 0.03433,0.03419 0.05168,0.05116 0.01707,0.01743 0.03424,0.03462 0.05168,0.05168 0.01731,0.01769 0.0345,0.03541 0.05219,0.05271 0.0175,0.01787 0.03534,0.03523 0.05323,0.05271 0.01775,0.01814 0.03559,0.03601 0.05374,0.05374 0.01758,0.01796 0.03525,0.03566 0.05323,0.05323 0.01816,0.01857 0.03671,0.03663 0.05529,0.05478 0.01816,0.01856 0.0362,0.03715 0.05478,0.05529 0.01825,0.01865 0.03663,0.03706 0.05529,0.05529 0.01841,0.01883 0.03697,0.03741 0.05581,0.05581 0.01875,0.01918 0.03765,0.03811 0.05684,0.05684 0.01875,0.01918 0.03765,0.03811 0.05684,0.05684 0.01908,0.01954 0.03833,0.03881 0.05788,0.05788 0.01917,0.01963 0.03875,0.03872 0.0584,0.05788 0.01933,0.01979 0.03859,0.0396 0.05839,0.05891 0.01959,0.02006 0.03935,0.03985 0.05943,0.05943 0.01969,0.02017 0.03976,0.03976 0.05994,0.05943 0.01918,0.01965 0.03823,0.03922 0.05788,0.0584 0.02162,0.0222 0.04341,0.04403 0.06563,0.06563 0.01935,0.01979 0.03908,0.03908 0.05891,0.05839 0.02027,0.02078 0.0407,0.04124 0.0615,0.0615 0.0206,0.02113 0.04138,0.04194 0.06253,0.06253 0.02051,0.02104 0.04096,0.04203 0.06201,0.06253 0.0211,0.02165 0.04241,0.04299 0.06408,0.06408 0.02111,0.02166 0.0424,0.04299 0.06408,0.06408 0.02118,0.02174 0.04284,0.04291 0.0646,0.06408 0.02127,0.02184 0.04275,0.04334 0.0646,0.0646 0.02144,0.02202 0.04309,0.04368 0.06511,0.06511 0.02194,0.02255 0.04411,0.04473 0.06666,0.06666 0.01277,0.01311 0.02582,0.02587 0.03876,0.03876 a 7.0114585,7.0114585 0 0 0 2.71353,-5.535579 7.0114585,7.0114585 0 0 0 -0.168466,-1.487765 c -0.0093,-0.0093 -0.01852,-0.01867 -0.02791,-0.02791 -0.01498,-0.01532 -0.03019,-0.03042 -0.04547,-0.04547 -0.0143,-0.01463 -0.02883,-0.02903 -0.04341,-0.04341 -0.01472,-0.01506 -0.02942,-0.03016 -0.04444,-0.04496 -0.01456,-0.01488 -0.0296,-0.0293 -0.04444,-0.04392 -0.01371,-0.01401 -0.02737,-0.02807 -0.04134,-0.04186 -0.01422,-0.01453 -0.02892,-0.0286 -0.04341,-0.04289 -0.01372,-0.01402 -0.02736,-0.02806 -0.04134,-0.04186 -0.01363,-0.01393 -0.02745,-0.02764 -0.04134,-0.04134 -0.01371,-0.01401 -0.02789,-0.02756 -0.04186,-0.04134 -0.01295,-0.01323 -0.02609,-0.02625 -0.03927,-0.03927 -0.01346,-0.01375 -0.02712,-0.02729 -0.04083,-0.04082 -0.01262,-0.01287 -0.02541,-0.02556 -0.03824,-0.03824 -0.01312,-0.0134 -0.02643,-0.0266 -0.03979,-0.03979 -0.01228,-0.01253 -0.02472,-0.02486 -0.03721,-0.03721 -0.0127,-0.01296 -0.02532,-0.02599 -0.03824,-0.03876 -0.01202,-0.01226 -0.02447,-0.02409 -0.03669,-0.03617 -0.01236,-0.01261 -0.02464,-0.0253 -0.03721,-0.03772 -0.0116,-0.01182 -0.02336,-0.02348 -0.03514,-0.03514 -0.01321,-0.01347 -0.02686,-0.02653 -0.04031,-0.03979 -0.0091,-0.0093 -0.01813,-0.01871 -0.02739,-0.02791 -0.0126,-0.01288 -0.02542,-0.02555 -0.03824,-0.03824 -0.01126,-0.01147 -0.02267,-0.02279 -0.03411,-0.03411 -0.01093,-0.01113 -0.02198,-0.02209 -0.03307,-0.03307 -0.01228,-0.01251 -0.02472,-0.02488 -0.03721,-0.03721 -0.0082,-0.0083 -0.0165,-0.01655 -0.02481,-0.02481 -0.0116,-0.01184 -0.02336,-0.02346 -0.03514,-0.03514 -0.01186,-0.01207 -0.02412,-0.02375 -0.03617,-0.03566 -0.0077,-0.0078 -0.01547,-0.01551 -0.02326,-0.02326 -0.01109,-0.01132 -0.02182,-0.02294 -0.03307,-0.03411 -0.01007,-0.01024 -0.02028,-0.02037 -0.03049,-0.03049 -0.0097,-0.0098 -0.01967,-0.01924 -0.02946,-0.02894 -0.0094,-0.0096 -0.01891,-0.01898 -0.02842,-0.02842 -0.0094,-0.0096 -0.01891,-0.01898 -0.02842,-0.02842 -0.0091,-0.0093 -0.01814,-0.01872 -0.02739,-0.02791 -0.0091,-0.0093 -0.01865,-0.0182 -0.02791,-0.02739 -0.0087,-0.0089 -0.01754,-0.01759 -0.02636,-0.02636 -0.0086,-0.0087 -0.01719,-0.01724 -0.02584,-0.02584 -0.0086,-0.0088 -0.01711,-0.01768 -0.02584,-0.02636 -0.0083,-0.0084 -0.01694,-0.01647 -0.02532,-0.02481 -0.0082,-0.0083 -0.01651,-0.01656 -0.0248,-0.0248 -0.008,-0.0082 -0.01616,-0.0162 -0.02429,-0.02429 -0.0077,-0.0078 -0.01548,-0.01552 -0.02325,-0.02325 -0.0075,-0.0076 -0.01513,-0.01517 -0.02274,-0.02274 -0.0074,-0.0076 -0.0147,-0.01525 -0.02222,-0.02274 -0.0073,-0.0074 -0.01487,-0.01439 -0.02222,-0.0217 -0.0072,-0.0073 -0.01445,-0.01448 -0.0217,-0.0217 -0.0069,-0.007 -0.01368,-0.01422 -0.02067,-0.02119 -0.0068,-0.0068 -0.01385,-0.01336 -0.02067,-0.02015 -0.0066,-0.0067 -0.01299,-0.01353 -0.01964,-0.02015 -0.0064,-0.0065 -0.01316,-0.01267 -0.01964,-0.01912 -0.0062,-0.0063 -0.0123,-0.01284 -0.0186,-0.01912 -0.006,-0.0061 -0.01205,-0.01206 -0.01809,-0.01809 -0.006,-0.0061 -0.01205,-0.01206 -0.01809,-0.01809 -0.0056,-0.0057 -0.01136,-0.01137 -0.01705,-0.01705 -0.0056,-0.0057 -0.01136,-0.01137 -0.01705,-0.01705 -0.0053,-0.0054 -0.01067,-0.01068 -0.01602,-0.01602 -0.0051,-0.0052 -0.01032,-0.01033 -0.0155,-0.0155 -0.0051,-0.0052 -0.01033,-0.01033 -0.0155,-0.0155 -0.007,-0.0071 -0.0141,-0.01415 -0.02119,-0.02119 -0.0069,-0.007 -0.01368,-0.0142 -0.02067,-0.02119 -0.0044,-0.0044 -0.009,-0.0085 -0.01344,-0.01292 -0.0042,-0.0042 -0.0082,-0.0087 -0.0124,-0.01292 -0.004,-0.0041 -0.0084,-0.0078 -0.0124,-0.01189 -0.0055,-0.0055 -0.01101,-0.01103 -0.01654,-0.01654 -0.0053,-0.0054 -0.01068,-0.01067 -0.01602,-0.01602 -0.0034,-0.0035 -0.0069,-0.0069 -0.01034,-0.01033 -0.0031,-0.0031 -0.0062,-0.0062 -0.0093,-0.0093 -0.0029,-0.0029 -0.0059,-0.0059 -0.0088,-0.0088 -0.004,-0.0041 -0.0078,-0.0084 -0.01189,-0.0124 -0.0026,-0.0026 -0.0052,-0.0052 -0.0078,-0.0078 -0.0012,-0.0012 -0.0024,-0.0024 -0.0036,-0.0036 -0.001,-10e-4 -0.0021,-0.0021 -0.0031,-0.0031 -0.0012,-0.0012 -0.0024,-0.0024 -0.0036,-0.0036 -0.001,-10e-4 -0.0021,-0.0021 -0.0031,-0.0031 -0.0011,-0.0011 -0.0025,-0.002 -0.0036,-0.0031 -9.4e-4,-9.43e-4 -0.0016,-0.0022 -0.0026,-0.0031 -8.6e-4,-8.68e-4 -0.0017,-0.0017 -0.0026,-0.0026 -8.59e-4,-8.61e-4 -0.0017,-0.0017 -0.0026,-0.0026 -9.41e-4,-9.51e-4 -0.0022,-0.0016 -0.0031,-0.0026 -0.0016,-0.0016 -0.003,-0.0035 -0.0047,-0.0052 -6.86e-4,-6.88e-4 -0.0014,-0.0014 -0.0021,-0.0021 -6.88e-4,-6.93e-4 -0.0014,-0.0014 -0.0021,-0.0021 -5.14e-4,-5.17e-4 -10e-4,-10e-4 -0.0015,-0.0015 -6.87e-4,-6.93e-4 -0.0014,-0.0014 -0.0021,-0.0021 -5.14e-4,-5.16e-4 -0.001,-0.001 -0.0016,-0.0016 -5.16e-4,-5.2e-4 -0.001,-0.001 -0.0015,-0.0015 -3.44e-4,-3.45e-4 -6.9e-4,-6.89e-4 -0.001,-0.001 -5.16e-4,-5.19e-4 -10e-4,-10e-4 -0.0016,-0.0015 -3.43e-4,-3.44e-4 -6.91e-4,-6.89e-4 -10e-4,-10e-4 l -5.17e-4,-5.17e-4 c -4.33e-4,-4.36e-4 -0.0011,-5.98e-4 -0.0015,-10e-4 -3.33e-4,-3.35e-4 -7e-4,-6.98e-4 -0.001,-10e-4 -2.61e-4,-2.62e-4 -2.57e-4,-7.71e-4 -5.17e-4,-0.001 0,0 -5.17e-4,-5.16e-4 -5.17e-4,-5.16e-4 -0.04979,-0.05006 -0.101444,-0.09817 -0.154512,-0.145211 -9.06e-4,-7.99e-4 -0.0017,-0.0018 -0.0026,-0.0026 -5.45e-4,-4.8e-4 -0.001,-0.0011 -0.0016,-0.0015 -5.44e-4,-4.8e-4 -0.001,-0.0011 -0.0016,-0.0016 -0.03406,-0.03004 -0.07005,-0.05807 -0.10542,-0.08682 -0.001,-8.49e-4 -0.0021,-0.0017 -0.0031,-0.0026 -0.13686,-0.110957 -0.28233,-0.213065 -0.4377,-0.302824 -0.06514,-0.03763 -0.131017,-0.07299 -0.197921,-0.105937 -3.46e-4,-1.7e-4 -6.86e-4,-3.46e-4 -0.001,-5.16e-4 -0.201424,-0.09912 -0.41058,-0.1768644 -0.623735,-0.2335773 -3.62e-4,-9.63e-5 -6.71e-4,-4.207e-4 -0.001,-5.168e-4 -0.284712,-0.07565 -0.57688,-0.1136879 -0.869198,-0.1136879 z"
       id="path1461"
       inkscape:connector-curvature="0" />
  </g>
  <g
     style="display:inline"
     inkscape:label="yolk"
     id="layer3"
     inkscape:groupmode="layer">
    <path
       inkscape:connector-curvature="0"
       style="color:#000000;display:inline;overflow:visible;visibility:visible;fill:#ffffff;fill-opacity:1;fill-rule:nonzero;stroke:none;stroke-width:5.0581131;marker:none;enable-background:accumulate"
       id="path7157"
       d="m 19.795618,12.868146 a 3.38455,3.38455 0 0 1 -6.7691,0 3.38455,3.38455 0 1 1 6.7691,0 z" />
    <path
       inkscape:connector-curvature="0"
       style="color:#000000;display:inline;overflow:visible;visibility:visible;fill:#facd00;fill-opacity:1;fill-rule:nonzero;stroke:none;stroke-width:5.0581131;marker:none;enable-background:accumulate"
       id="path7159"
       d="m 20.130128,13.202626 a 3.3845511,3.3845511 0 0 1 -6.7691,0 3.3845511,3.3845511 0 1 1 6.7691,0 z" />
  </g>
</svg>
