<?xml version="1.0" encoding="UTF-8" standalone="no"?>
<!-- Created with Inkscape (http://www.inkscape.org/) -->

<svg
   xmlns:dc="http://purl.org/dc/elements/1.1/"
   xmlns:cc="http://creativecommons.org/ns#"
   xmlns:rdf="http://www.w3.org/1999/02/22-rdf-syntax-ns#"
   xmlns:svg="http://www.w3.org/2000/svg"
   xmlns="http://www.w3.org/2000/svg"
   xmlns:sodipodi="http://sodipodi.sourceforge.net/DTD/sodipodi-0.dtd"
   xmlns:inkscape="http://www.inkscape.org/namespaces/inkscape"
   width="108"
   height="108"
   viewBox="0 0 28.574999 28.575001"
   version="1.1"
   id="svg832"
   inkscape:version="0.92.3 (2405546, 2018-03-11)"
   sodipodi:docname="lonely_egg_in_pan.svg">
  <sodipodi:namedview
     id="base"
     pagecolor="#ffffff"
     bordercolor="#666666"
     borderopacity="1.0"
     inkscape:pageopacity="0.0"
     inkscape:pageshadow="2"
     inkscape:zoom="1.979899"
     inkscape:cx="-167.13608"
     inkscape:cy="15.458245"
     inkscape:document-units="mm"
     inkscape:current-layer="layer5"
     showgrid="false"
     units="px"
     inkscape:window-width="1883"
     inkscape:window-height="1052"
     inkscape:window-x="37"
     inkscape:window-y="0"
     inkscape:window-maximized="1" />
  <defs
     id="defs826" />
  <metadata
     id="metadata829">
    <rdf:RDF>
      <cc:Work
         rdf:about="">
        <dc:format>image/svg+xml</dc:format>
        <dc:type
           rdf:resource="http://purl.org/dc/dcmitype/StillImage" />
        <dc:title />
      </cc:Work>
    </rdf:RDF>
  </metadata>
  <g
     inkscape:groupmode="layer"
     id="layer5"
     inkscape:label="circle-background"
     style="display:inline">
    <circle
       r="14.2875"
       cy="14.2875"
       cx="14.2875"
       id="circle823"
       style="opacity:1;fill:#808080;fill-opacity:1;stroke:none;stroke-width:0.27598187;stroke-miterlimit:4;stroke-dasharray:none;stroke-opacity:1" />
  </g>
  <g
     inkscape:groupmode="layer"
     id="layer2"
     inkscape:label="shadow"
     style="display:inline">
    <g
       style="fill:#000000"
       id="g1227" />
    <path
       style="display:inline;opacity:0.17000002;fill:#000000;fill-opacity:1;stroke:none;stroke-width:0.27598187;stroke-miterlimit:4;stroke-dasharray:none;stroke-opacity:1"
       d="m 16.019318,1.0823854 a 11.473296,11.473296 0 0 0 -0.09048,0.00339 c -0.207808,0.00165 -0.413951,0.00944 -0.618989,0.021986 a 11.473296,11.473296 0 0 0 -0.191955,0.014367 c -0.33805,0.026332 -0.672017,0.065923 -1.001208,0.1209224 a 11.473296,11.473296 0 0 0 -0.10908,0.01945 c -0.348903,0.061779 -0.692708,0.1391449 -1.02996,0.2316981 a 11.473296,11.473296 0 0 0 -0.06089,0.016912 c -0.352289,0.098789 -0.697326,0.213459 -1.035031,0.344165 a 11.473296,11.473296 0 0 0 -0.04228,0.016912 c -0.33643,0.1317617 -0.665058,0.2788179 -0.985142,0.4405651 a 11.473296,11.473296 0 0 0 -0.08033,0.041434 C 10.465508,2.5131352 10.16564,2.6855487 9.8742387,2.8708572 a 11.473296,11.473296 0 0 0 -0.102321,0.065113 C 9.4919797,3.1181644 9.2207707,3.3125057 8.9584367,3.517753 a 11.473296,11.473296 0 0 0 -0.124314,0.09809 C 8.5801427,3.8202601 8.3348248,4.0352718 8.0992888,4.2602068 A 11.473296,11.473296 0 0 0 7.9800628,4.3743645 C 7.7444648,4.6058947 7.5194088,4.8480363 7.3044168,5.099056 a 11.473296,11.473296 0 0 0 -0.09047,0.1048565 C 6.9896488,5.4722389 6.7782878,5.751066 6.5788898,6.0393769 a 11.473296,11.473296 0 0 0 -0.03975,0.056656 c -0.209281,0.3065253 -0.404127,0.6235904 -0.58347,0.9504707 a 11.473296,11.473296 0 0 0 -0.0067,0.011831 c -0.542407,0.9914891 -0.942934,2.0715922 -1.173711,3.2133334 a 11.473296,11.473296 0 0 0 -0.0025,0.0144 c -0.07354,0.366178 -0.130517,0.738328 -0.168279,1.116212 a 11.473296,11.473296 0 0 0 -0.0016,0.0296 c -0.03487,0.358302 -0.05382,0.721114 -0.05497,1.088305 a 11.473296,11.473296 0 0 0 -0.0016,0.03552 11.473296,11.473296 0 0 0 0.0034,0.0854 c 0.0015,0.210672 0.0093,0.419621 0.02199,0.627445 a 11.473296,11.473296 0 0 0 0.01358,0.186035 c 0.02641,0.340683 0.06709,0.677131 0.122612,1.008818 a 11.473296,11.473296 0 0 0 0.01775,0.09725 c 0.06238,0.353823 0.14022,0.70249 0.234236,1.044334 a 11.473296,11.473296 0 0 0 0.01178,0.04313 c 0.100457,0.359712 0.218077,0.711652 0.351776,1.056172 a 11.473296,11.473296 0 0 0 0.0067,0.0186 c 0.13482,0.345625 0.285978,0.682958 0.452404,1.011355 a 11.473296,11.473296 0 0 0 0.0279,0.05328 c 0.164448,0.320305 0.342456,0.632469 0.535274,0.934404 a 11.473296,11.473296 0 0 0 0.04143,0.06426 c 0.189787,0.292868 0.393048,0.576188 0.607997,0.849843 a 11.473296,11.473296 0 0 0 0.0685,0.08794 c 0.03477,0.0434 0.06778,0.0882 0.103172,0.131072 7.37e-4,9.1e-4 0.0016,0.0015 0.0026,0.0025 0.116199,0.140711 0.235883,0.278555 0.35854,0.413506 8.22e-4,8.65e-4 0.0018,0.0016 0.0025,0.0026 0.0033,0.0036 0.0069,0.0065 0.01014,0.01014 0.0633,0.06946 0.129535,0.135917 0.194492,0.203795 a 11.473296,11.473296 0 0 0 0.09471,0.09979 l 0.0034,0.0034 c 0.02585,0.02634 0.05001,0.05424 0.07611,0.08033 l 0.0034,0.0034 0.0051,0.0051 0.0059,0.0059 0.0043,0.0043 0.02114,0.02114 c 0.0021,0.0021 0.0046,0.0038 0.0067,0.0059 0.0016,0.0016 0.0026,0.0036 0.0043,0.0051 0.0029,0.0029 0.0064,0.0056 0.0093,0.0085 l 8.44e-4,8.46e-4 c 0.0047,0.0047 0.0095,0.0097 0.0144,0.0144 0.0057,0.0057 0.01113,0.01194 0.01692,0.01775 0.0064,0.0064 0.01309,0.01227 0.01944,0.01861 l 0.02029,0.02029 0.02198,0.02199 0.02453,0.02453 c 0.0085,0.0087 0.01676,0.01762 0.02536,0.02621 0.0092,0.0092 0.01874,0.01792 0.0279,0.02707 0.0097,0.0097 0.01914,0.01918 0.02875,0.02875 0.01031,0.01031 0.02014,0.02103 0.03044,0.03129 0.01096,0.01096 0.02196,0.02201 0.03297,0.03297 0.01145,0.01145 0.02324,0.02243 0.03468,0.03382 0.01178,0.01195 0.02365,0.0237 0.03551,0.03551 0.0126,0.01276 0.02533,0.02541 0.03806,0.03805 0.01309,0.01309 0.02661,0.02582 0.03975,0.0389 0.01375,0.01391 0.02757,0.02764 0.04143,0.04143 0.01424,0.01424 0.02801,0.02893 0.04228,0.04312 0.01473,0.01489 0.02998,0.02923 0.04482,0.04397 0.01555,0.01554 0.03094,0.03104 0.04651,0.0465 0.01604,0.0162 0.03209,0.03217 0.04821,0.04821 0.01643,0.01653 0.03251,0.03345 0.04904,0.04989 0.017,0.0171 0.03448,0.03373 0.05158,0.05073 0.01798,0.0181 0.03602,0.03613 0.05411,0.05411 0.018,0.01811 0.036,0.03611 0.05411,0.05412 0.01883,0.01896 0.03768,0.03782 0.05665,0.05665 0.01939,0.01954 0.03881,0.03894 0.05835,0.05835 0.01996,0.0201 0.03993,0.04008 0.06004,0.06004 0.02052,0.02067 0.04106,0.04122 0.06172,0.06172 0.02108,0.02124 0.04219,0.04235 0.06343,0.06343 0.02163,0.02181 0.0433,0.04348 0.06511,0.06511 0.02219,0.02237 0.04443,0.04461 0.0668,0.0668 0.02276,0.02294 0.04554,0.04574 0.0685,0.0685 0.02358,0.02378 0.04724,0.04745 0.07104,0.07104 0.02371,0.02392 0.04798,0.04732 0.07188,0.07103 0.02455,0.02478 0.0488,0.04988 0.07357,0.07441 0.02499,0.02522 0.05004,0.05027 0.07526,0.07526 0.02554,0.02579 0.05117,0.0514 0.07696,0.07696 0.02652,0.02677 0.05356,0.05297 0.08033,0.0795 0.02649,0.02675 0.05272,0.05384 0.07949,0.08033 0.02723,0.02749 0.05452,0.0548 0.08203,0.08203 0.02793,0.02821 0.05634,0.0558 0.08457,0.08372 0.02846,0.02875 0.05665,0.0578 0.0854,0.08625 0.0289,0.02921 0.05789,0.05821 0.0871,0.0871 0.02957,0.02988 0.05974,0.05922 0.08964,0.08879 0.03016,0.03048 0.05999,0.06117 0.09047,0.09132 0.03068,0.03103 0.06198,0.0615 0.09301,0.09218 0.03127,0.03163 0.06223,0.06344 0.09386,0.09471 0.0318,0.03217 0.06423,0.06375 0.0964,0.09555 0.03253,0.03292 0.06516,0.06557 0.09808,0.09808 0.03291,0.0333 0.06562,0.06688 0.09894,0.09979 0.0335,0.03391 0.06755,0.06712 0.101471,0.10062 0.03168,0.03207 0.06349,0.06383 0.09555,0.09555 0.03945,0.04002 0.0792,0.07979 0.119225,0.119225 0.03283,0.03319 0.06572,0.06614 0.09894,0.09894 0.03587,0.03634 0.07188,0.07238 0.108245,0.108245 0.03625,0.03674 0.07319,0.07283 0.109931,0.10908 0.0368,0.03731 0.07346,0.07482 0.110782,0.111617 0.03808,0.0386 0.07638,0.07694 0.115004,0.115003 0.03754,0.03806 0.07524,0.07578 0.113318,0.113319 0.03865,0.03921 0.07748,0.07805 0.116689,0.116689 0.03921,0.03978 0.07861,0.07918 0.118391,0.118391 0.03921,0.03978 0.07861,0.07918 0.118391,0.11839 0.04029,0.04091 0.08087,0.08148 0.121778,0.121762 0.04084,0.04148 0.082,0.0826 0.123464,0.123464 0.04196,0.04261 0.08422,0.08488 0.126851,0.126851 0.04199,0.04264 0.08419,0.08485 0.126834,0.126834 0.04253,0.04322 0.08532,0.08599 0.128536,0.128537 0.04309,0.04379 0.08643,0.08714 0.130222,0.130222 0.04364,0.04436 0.08756,0.08828 0.131908,0.131923 0.0442,0.04493 0.08867,0.08941 0.133609,0.133609 0.04485,0.04559 0.09054,0.09046 0.136145,0.135295 0.04541,0.04618 0.09084,0.09244 0.136996,0.137831 0.04587,0.04665 0.09203,0.09281 0.138682,0.138682 0.04642,0.04722 0.09314,0.09396 0.140368,0.140367 0.04706,0.0479 0.09501,0.09501 0.142903,0.142069 0.04762,0.04847 0.09612,0.09614 0.144606,0.143754 0.04809,0.04896 0.09648,0.09735 0.14544,0.14544 0.04817,0.04904 0.0964,0.09812 0.14544,0.146291 0.04986,0.05079 0.100571,0.100653 0.151363,0.150513 0.04989,0.05083 0.0997,0.101487 0.150513,0.151364 0.05038,0.05133 0.101716,0.101831 0.153049,0.152214 0.05101,0.05197 0.101929,0.103762 0.1539,0.154751 0.0515,0.05248 0.103958,0.104089 0.156436,0.155586 0.0521,0.05312 0.104171,0.106036 0.157288,0.158122 0.05259,0.05364 0.106183,0.10638 0.159823,0.158972 0.05389,0.05495 0.108246,0.109358 0.163211,0.163211 0.05322,0.05426 0.10638,0.108311 0.160675,0.161509 2.8e-4,2.85e-4 5.66e-4,5.62e-4 8.46e-4,8.46e-4 A 14.2875,14.2875 0 0 0 28.574999,14.287499 14.2875,14.2875 0 0 0 26.382322,6.6947279 c -0.02137,-0.021476 -0.04271,-0.042943 -0.06426,-0.064267 -0.02846,-0.028751 -0.0575,-0.056967 -0.08625,-0.085407 -0.02792,-0.028211 -0.05551,-0.05663 -0.08372,-0.084562 -0.02723,-0.027507 -0.05452,-0.054795 -0.08203,-0.082024 -0.02649,-0.026771 -0.05358,-0.052979 -0.08033,-0.079488 -0.02651,-0.026771 -0.05271,-0.053825 -0.07949,-0.080334 -0.02554,-0.025789 -0.05115,-0.051406 -0.07694,-0.07695 -0.02499,-0.025233 -0.05004,-0.050272 -0.07526,-0.07526 -0.02454,-0.024775 -0.04966,-0.049024 -0.07442,-0.073568 -0.02371,-0.023924 -0.04711,-0.048166 -0.07103,-0.071877 -0.02358,-0.023793 -0.04724,-0.047451 -0.07103,-0.071031 -0.02275,-0.022942 -0.04556,-0.045733 -0.0685,-0.068495 -0.02238,-0.022386 -0.04441,-0.044615 -0.0668,-0.066804 -0.02163,-0.021813 -0.0433,-0.04348 -0.06511,-0.065112 -0.02108,-0.02124 -0.04219,-0.042344 -0.06343,-0.063421 -0.02052,-0.020667 -0.04106,-0.041222 -0.06172,-0.06173 -0.01995,-0.020106 -0.03994,-0.040078 -0.06004,-0.060038 -0.01939,-0.01954 -0.03882,-0.038949 -0.05835,-0.058348 -0.01884,-0.018972 -0.03769,-0.037818 -0.05665,-0.056656 -0.018,-0.01812 -0.036,-0.036121 -0.05411,-0.05412 -0.01798,-0.018111 -0.03602,-0.036131 -0.05411,-0.054119 -0.01699,-0.017102 -0.03364,-0.034585 -0.05074,-0.051583 -0.01643,-0.016534 -0.03335,-0.032609 -0.04989,-0.049045 -0.01604,-0.016135 -0.03209,-0.032164 -0.04821,-0.048199 -0.01554,-0.015562 -0.03094,-0.031034 -0.0465,-0.046509 -0.01473,-0.014842 -0.02914,-0.03006 -0.04397,-0.044818 -0.01424,-0.014269 -0.02885,-0.028085 -0.04313,-0.04228 -0.01375,-0.01386 -0.02757,-0.02764 -0.04143,-0.041434 -0.01309,-0.01314 -0.02576,-0.026668 -0.0389,-0.039744 -0.0126,-0.012714 -0.02535,-0.0254 -0.03806,-0.038054 -0.01178,-0.01188 -0.02364,-0.023691 -0.03551,-0.035516 -0.01145,-0.011438 -0.02238,-0.023282 -0.03382,-0.03467 -0.0056,-0.00564 -0.01129,-0.011274 -0.01692,-0.016912 -0.02049,-0.020643 -0.04109,-0.04124 -0.06172,-0.06173 -0.0046,-0.00465 -0.0097,-0.00889 -0.0144,-0.013533 -0.0092,-0.00918 -0.01789,-0.018766 -0.02707,-0.027905 -0.0085,-0.00862 -0.01759,-0.016779 -0.02621,-0.025369 -0.0082,-0.0082 -0.01636,-0.016364 -0.02453,-0.024522 -0.0074,-0.00733 -0.01473,-0.014662 -0.02199,-0.021986 -0.0067,-0.00677 -0.01358,-0.013533 -0.02029,-0.020294 -0.0064,-0.00635 -0.01227,-0.013124 -0.01861,-0.01945 -0.0031,-0.00313 -0.0062,-0.0062 -0.0093,-0.00929 -0.0026,-0.00268 -0.0057,-0.00493 -0.0085,-0.00761 -0.0026,-0.00268 -0.0049,-0.00579 -0.0077,-0.00846 -0.0021,-0.00213 -0.0056,-0.00463 -0.0077,-0.00676 -5.62e-4,-5.629e-4 -0.0012,-0.00113 -0.0016,-0.00169 -0.0018,-0.00187 -0.0033,-0.00407 -0.0051,-0.00592 -0.0021,-0.00213 -0.0046,-0.00381 -0.0067,-0.00592 -0.0021,-0.00213 -0.0038,-0.00465 -0.0059,-0.00676 -0.007,-0.00705 -0.01407,-0.014106 -0.02114,-0.02114 -0.0014,-0.00143 -0.0028,-0.0028 -0.0043,-0.00422 -0.0011,-0.00113 -0.0023,-0.00227 -0.0034,-0.00339 -8.66e-4,-8.658e-4 -0.0016,-0.00167 -0.0026,-0.00254 -0.0011,-0.00113 -0.0023,-0.00227 -0.0034,-0.00339 -5.63e-4,-5.629e-4 -0.0012,-0.00113 -0.0016,-0.00169 -8.66e-4,-8.663e-4 -0.0016,-0.00167 -0.0025,-0.00254 l -8.46e-4,-8.455e-4 c -5.63e-4,-5.629e-4 -0.0012,-0.00113 -0.0016,-0.00169 -0.02553,-0.025531 -0.05287,-0.049122 -0.07864,-0.074414 -0.0044,-0.00434 -0.0092,-0.00836 -0.01358,-0.012682 -0.09671,-0.094546 -0.193439,-0.1887928 -0.293427,-0.2798982 -0.0036,-0.00321 -0.0065,-0.00694 -0.01015,-0.010145 -8.66e-4,-8.226e-4 -0.0025,-0.00172 -0.0034,-0.00254 -0.09327,-0.084772 -0.189784,-0.1660633 -0.285819,-0.2477651 a 11.473296,11.473296 0 0 0 -0.06089,-0.053273 c -0.02252,-0.018882 -0.04413,-0.038788 -0.0668,-0.057502 -9.09e-4,-7.36e-4 -0.0015,-0.00175 -0.0026,-0.00254 -0.259674,-0.2143026 -0.530296,-0.4159957 -0.808408,-0.6071508 -0.0043,-0.00299 -0.0083,-0.00633 -0.01276,-0.00929 a 11.473296,11.473296 0 0 0 -0.0059,-0.00339 C 21.247597,2.2316651 19.828673,1.6190934 18.298871,1.3107098 17.928902,1.2361288 17.552751,1.1787927 17.170823,1.1407414 c -0.002,-1.965e-4 -0.0039,-6.29e-4 -0.0059,-8.46e-4 a 11.473296,11.473296 0 0 0 -0.0169,-8.455e-4 c -0.360493,-0.035195 -0.72558,-0.053918 -1.095071,-0.054966 a 11.473296,11.473296 0 0 0 -0.03382,-0.00169 z"
       id="path822"
       inkscape:connector-curvature="0" />
  </g>
  <g
     inkscape:label="white"
     inkscape:groupmode="layer"
     id="layer1"
     transform="translate(0,-268.42498)"
     style="display:inline">
    <path
       style="display:inline;fill:#f2f2f2;fill-opacity:1;stroke:none;stroke-width:0.65982795;stroke-miterlimit:4;stroke-dasharray:none;stroke-opacity:1;enable-background:new"
       d="M 27.49261,280.98065 A 11.473296,11.473296 0 0 1 16.019327,292.45393 11.473296,11.473296 0 0 1 4.5460278,280.98065 11.473296,11.473296 0 0 1 16.019327,269.50737 11.473296,11.473296 0 0 1 27.49261,280.98065 Z"
       id="path818"
       inkscape:connector-curvature="0" />
  </g>
  <g
     style="display:inline"
     inkscape:label="yolk-shadow"
     id="layer4"
     inkscape:groupmode="layer">
    <path
       style="display:inline;opacity:0.07000002;fill:#000000;fill-opacity:1;stroke:none;stroke-width:0.65982795;stroke-miterlimit:4;stroke-dasharray:none;stroke-opacity:1;enable-background:new"
       d="m 20.041905,5.2377341 c -0.956675,0 -1.913118,0.2481326 -2.770232,0.7432946 -1.714227,0.9903235 -2.769291,2.8199789 -2.767695,4.7997073 3.07e-4,0.382768 0.03993,0.756199 0.114153,1.117055 0.07398,0.359642 0.182161,0.707078 0.322178,1.037569 0,0 8.46e-4,8.46e-4 8.46e-4,8.46e-4 0.07,0.16516 0.14742,0.32635 0.232544,0.482845 0,0 8.46e-4,8.46e-4 8.46e-4,8.46e-4 0.08516,0.156469 0.17718,0.308062 0.276516,0.454941 4.32e-4,6.39e-4 0.0021,0.002 0.0025,0.0024 0.03279,0.04854 0.07058,0.09295 0.104859,0.140367 0.06915,0.09548 0.13644,0.192531 0.211403,0.283281 5.02e-4,6.08e-4 0.0012,0.0011 0.0016,0.0016 0.0015,0.0018 0.0036,0.0033 0.0051,0.0051 0.05783,0.06976 0.121533,0.134443 0.182653,0.201256 0.0077,0.0084 0.01505,0.01703 0.02283,0.02536 0.02302,0.02491 0.04503,0.05079 0.0685,0.07526 0.007,0.0074 0.01326,0.01554 0.02029,0.02283 0.01944,0.02003 0.03692,0.04201 0.05665,0.06172 7.12e-4,7.1e-4 0.0018,9.8e-4 0.0026,0.0016 0,0 8.45e-4,8.46e-4 8.45e-4,8.46e-4 0,0 0,8.46e-4 0,8.46e-4 0.0023,0.0023 0.0044,0.0046 0.0067,0.0067 8.44e-4,8.44e-4 0.0016,0.0016 0.0026,0.0024 8.46e-4,8.44e-4 0.0016,0.0016 0.0025,0.0025 8.46e-4,8.46e-4 0.0016,0.0016 0.0026,0.0026 0.002,0.002 0.0039,0.0039 0.0059,0.0059 0.0023,0.0023 0.0046,0.0046 0.0067,0.0067 0.0025,0.0024 0.0051,0.0051 0.0077,0.0077 0.0029,0.003 0.0064,0.0056 0.0093,0.0085 0.0031,0.0031 0.0062,0.0062 0.0093,0.0093 0.0034,0.0034 0.0067,0.0067 0.01015,0.01015 0.0038,0.0038 0.0072,0.008 0.01096,0.01178 0.0039,0.0039 0.0079,0.0078 0.01178,0.01178 0.0043,0.0042 0.0085,0.0085 0.01276,0.01276 0.0046,0.0046 0.0097,0.0088 0.0144,0.01358 0.0047,0.0048 0.0095,0.0097 0.0144,0.0144 0.0051,0.0051 0.01015,0.01015 0.01522,0.01522 0.0056,0.0056 0.01047,0.01145 0.01604,0.0169 0.0057,0.0057 0.01195,0.01113 0.01776,0.01692 0.0059,0.0059 0.01178,0.01178 0.01775,0.01775 0.0065,0.0066 0.01293,0.01293 0.01946,0.01944 0.0065,0.0065 0.01293,0.01293 0.01946,0.01946 0.0067,0.0067 0.01342,0.01358 0.02029,0.02029 0.0072,0.0072 0.01473,0.01391 0.02198,0.02114 0.0075,0.0075 0.01456,0.01538 0.02199,0.02283 0.0075,0.0077 0.01522,0.01522 0.02283,0.02283 0.0082,0.0082 0.01636,0.01638 0.02453,0.02453 0.0083,0.0084 0.01702,0.0162 0.02536,0.02453 0.0072,0.0072 0.01391,0.01473 0.02114,0.02199 0.01145,0.01162 0.02304,0.02316 0.03467,0.03467 0.0075,0.0077 0.01522,0.01522 0.02283,0.02283 0.0095,0.0095 0.01926,0.01849 0.02875,0.0279 0.0097,0.0098 0.01897,0.0199 0.02875,0.0296 0.01,0.01 0.02037,0.01962 0.03044,0.0296 0.01031,0.01031 0.02009,0.02103 0.03044,0.03129 0.01047,0.01064 0.0215,0.02075 0.03214,0.03129 0.0108,0.01096 0.02122,0.02216 0.03214,0.03297 0.01113,0.01113 0.02263,0.02188 0.03382,0.03297 0.01015,0.01014 0.02024,0.02031 0.03044,0.03044 0.0144,0.01456 0.02851,0.02954 0.04312,0.04397 0.01047,0.01064 0.0215,0.02076 0.03214,0.03129 0.01244,0.01244 0.02473,0.02486 0.03721,0.03721 0.01244,0.01244 0.02473,0.02486 0.03721,0.03721 0.01293,0.01309 0.02585,0.02599 0.0389,0.0389 0.01293,0.01309 0.02585,0.02598 0.0389,0.0389 0.01342,0.01358 0.02697,0.02712 0.0406,0.0406 0.01244,0.01244 0.02473,0.02484 0.03721,0.03721 0.01684,0.01705 0.03368,0.03391 0.05074,0.05074 0.0126,0.01276 0.02528,0.02543 0.03805,0.03805 0.0144,0.01456 0.02936,0.02869 0.04397,0.04312 0.01473,0.01489 0.02908,0.03009 0.04397,0.04482 0.01538,0.01555 0.03102,0.03037 0.0465,0.04567 0.01522,0.01538 0.03019,0.03122 0.04567,0.0465 0.01555,0.01571 0.0316,0.03094 0.04736,0.0465 0.01604,0.0162 0.03201,0.03222 0.04821,0.04821 0.01636,0.01648 0.03256,0.03278 0.04904,0.04904 0.01656,0.01676 0.03314,0.03335 0.04989,0.04989 0.01656,0.01676 0.03314,0.03335 0.04989,0.04989 0.01725,0.01746 0.0341,0.0352 0.05158,0.05243 0.01723,0.01746 0.03495,0.03435 0.05243,0.05158 0.01767,0.01789 0.03538,0.03562 0.05328,0.05326 0.01795,0.01818 0.03592,0.03618 0.05411,0.05411 0.01821,0.01846 0.03649,0.03677 0.05496,0.05497 0.01695,0.01718 0.03356,0.03462 0.05074,0.05158 0.02142,0.02175 0.04335,0.04287 0.06511,0.06426 0.01767,0.01789 0.03536,0.03564 0.05328,0.05328 0.01949,0.01977 0.03942,0.03888 0.05919,0.05835 0.01947,0.01975 0.03859,0.03973 0.05835,0.05919 0.02004,0.02034 0.04053,0.04001 0.06089,0.06004 0.02003,0.02032 0.0397,0.04088 0.06004,0.06089 0.0206,0.02091 0.04165,0.04115 0.06258,0.06172 0.02058,0.0209 0.04083,0.042 0.06172,0.06258 0.02116,0.02149 0.04278,0.04228 0.06426,0.06342 0.02114,0.02147 0.04194,0.04315 0.06343,0.06426 0.02171,0.02206 0.04389,0.04343 0.06596,0.06511 0.02044,0.02076 0.04096,0.04129 0.06172,0.06172 0.02491,0.02536 0.04988,0.05037 0.07526,0.07526 0.02101,0.02132 0.04205,0.04245 0.06343,0.06343 0.02266,0.02306 0.04543,0.04584 0.0685,0.0685 0.02309,0.02348 0.04584,0.04711 0.06933,0.07018 0.02307,0.02347 0.0467,0.04628 0.07018,0.06933 0.0235,0.02391 0.04711,0.04755 0.07103,0.07103 0.02406,0.02448 0.04822,0.0487 0.07272,0.07272 0.02406,0.02448 0.04822,0.0487 0.07272,0.07272 0.02433,0.02477 0.04878,0.04926 0.07357,0.07357 0.02476,0.02522 0.05002,0.04968 0.07526,0.07441 0.02489,0.02535 0.04989,0.05038 0.07526,0.07526 0.02517,0.02564 0.05045,0.05096 0.07611,0.07611 0.02546,0.02594 0.05099,0.05151 0.07694,0.07696 0.026,0.02651 0.05212,0.05266 0.07864,0.07864 0.026,0.02649 0.05212,0.05267 0.07864,0.07864 0.025,0.02551 0.04976,0.05109 0.07526,0.07611 0.02903,0.02967 0.05827,0.05894 0.08794,0.08794 0.02587,0.02635 0.05225,0.05197 0.07864,0.07779 0.02721,0.02777 0.05423,0.05567 0.08203,0.08287 0.02736,0.02792 0.05493,0.05552 0.08287,0.08286 0.02778,0.02836 0.05618,0.05595 0.08457,0.08372 0.02793,0.02852 0.05603,0.05665 0.08457,0.08457 0.02833,0.02895 0.05645,0.05794 0.0854,0.08625 0.02864,0.02924 0.05783,0.05765 0.0871,0.08625 0.02904,0.02968 0.05824,0.05893 0.08794,0.08794 0.02877,0.02939 0.05768,0.05835 0.0871,0.0871 0.02972,0.03039 0.06007,0.05994 0.09047,0.08964 0.02972,0.03037 0.05924,0.06079 0.08964,0.09047 0.02986,0.03052 0.05994,0.06064 0.09047,0.09047 0.03013,0.03081 0.0605,0.06122 0.09133,0.09133 0.03068,0.03139 0.06161,0.06236 0.09301,0.09301 0.03068,0.03139 0.06161,0.06236 0.09301,0.09301 0.03122,0.03197 0.06272,0.06351 0.09471,0.09471 0.03137,0.03212 0.06341,0.06336 0.09556,0.09471 0.03163,0.03238 0.06315,0.0648 0.09555,0.0964 0.03206,0.03283 0.06439,0.06521 0.09725,0.09725 0.03222,0.03301 0.06506,0.06506 0.09808,0.09725 0.03139,0.03216 0.06256,0.06418 0.09471,0.09556 0.03538,0.03633 0.07103,0.07205 0.107395,0.107394 0.03166,0.03238 0.06395,0.06395 0.0964,0.09555 0.03317,0.034 0.0666,0.06748 0.100636,0.100636 0.03371,0.03458 0.06771,0.06863 0.102322,0.102322 0.03356,0.03443 0.06702,0.06878 0.101471,0.102322 0.03453,0.03543 0.0694,0.07035 0.104858,0.104858 0.03454,0.03544 0.06938,0.07035 0.104858,0.104858 0.03466,0.03557 0.0701,0.07022 0.105709,0.104858 0.03481,0.03574 0.06996,0.07092 0.105709,0.105709 0.03508,0.03603 0.07051,0.07148 0.106544,0.106544 0.0359,0.0369 0.07218,0.07319 0.10908,0.10908 0.0209,0.02145 0.04225,0.04233 0.06343,0.06342 a 11.473296,11.473296 0 0 0 4.440321,-9.058058 11.473296,11.473296 0 0 0 -0.275671,-2.434524 c -0.01522,-0.01522 -0.03031,-0.03055 -0.04567,-0.04567 -0.02451,-0.02507 -0.0494,-0.04978 -0.07441,-0.07441 -0.0234,-0.02394 -0.04718,-0.047504 -0.07103,-0.071035 C 27.001743,9.905094 26.977693,9.880385 26.953113,9.856167 26.929283,9.831818 26.904673,9.808222 26.880393,9.784298 26.857953,9.761372 26.835603,9.738365 26.812743,9.7158 26.789473,9.692024 26.765423,9.669 26.741703,9.645616 26.719253,9.622674 26.696933,9.5997 26.674053,9.577118 c -0.0223,-0.022795 -0.04492,-0.045229 -0.06765,-0.067647 -0.02243,-0.022925 -0.04564,-0.045098 -0.0685,-0.067647 -0.02119,-0.021649 -0.04269,-0.042955 -0.06426,-0.06426 -0.02202,-0.0225 -0.04438,-0.044656 -0.06681,-0.066796 -0.02065,-0.02106 -0.04158,-0.041825 -0.06257,-0.062575 -0.02147,-0.021927 -0.04325,-0.043527 -0.06511,-0.065111 -0.02009,-0.020504 -0.04045,-0.04068 -0.06089,-0.060889 -0.02078,-0.021207 -0.04143,-0.042529 -0.06257,-0.063426 -0.01967,-0.020062 -0.04004,-0.03942 -0.06004,-0.059187 -0.02022,-0.020635 -0.04032,-0.0414 -0.06089,-0.061724 -0.01898,-0.019342 -0.03823,-0.038422 -0.0575,-0.057502 -0.02162,-0.022042 -0.04395,-0.043413 -0.06596,-0.065111 -0.01489,-0.015218 -0.02967,-0.030616 -0.04482,-0.045671 -0.02062,-0.021076 -0.0416,-0.041809 -0.06257,-0.062575 -0.01843,-0.018769 -0.0371,-0.037293 -0.05582,-0.055816 -0.01789,-0.018213 -0.03597,-0.036147 -0.05411,-0.054115 -0.02009,-0.020471 -0.04045,-0.040713 -0.06089,-0.060889 -0.01342,-0.013582 -0.027,-0.027082 -0.0406,-0.040598 -0.01898,-0.019375 -0.03823,-0.038389 -0.0575,-0.057502 -0.01941,-0.019751 -0.03947,-0.038864 -0.05919,-0.058353 -0.0126,-0.012764 -0.02531,-0.02538 -0.03806,-0.038062 -0.01815,-0.018524 -0.03571,-0.037538 -0.05411,-0.055816 -0.01648,-0.016756 -0.03318,-0.033333 -0.04989,-0.049893 -0.01587,-0.016036 -0.03219,-0.031484 -0.04821,-0.047356 -0.01538,-0.015709 -0.03094,-0.031058 -0.0465,-0.046505 -0.01538,-0.015709 -0.03094,-0.031058 -0.04651,-0.046505 -0.01489,-0.015218 -0.02968,-0.030633 -0.04482,-0.045671 -0.01489,-0.015218 -0.03052,-0.029782 -0.04567,-0.04482 -0.01424,-0.014564 -0.0287,-0.028784 -0.04313,-0.043135 -0.01407,-0.014236 -0.02813,-0.028211 -0.04228,-0.042284 -0.01407,-0.0144 -0.028,-0.028931 -0.04228,-0.043134 -0.01358,-0.013746 -0.02772,-0.026951 -0.04143,-0.040598 -0.01342,-0.013582 -0.02702,-0.027098 -0.04058,-0.040582 -0.01309,-0.013418 -0.02644,-0.026509 -0.03975,-0.039747 -0.0126,-0.012764 -0.02533,-0.025396 -0.03805,-0.038045 -0.01227,-0.012436 -0.02476,-0.024824 -0.03721,-0.037211 -0.01211,-0.012436 -0.02406,-0.024954 -0.03636,-0.037211 -0.01195,-0.012109 -0.02433,-0.023547 -0.03636,-0.035509 -0.01178,-0.011945 -0.02365,-0.023694 -0.03551,-0.035509 -0.01129,-0.011454 -0.02238,-0.023269 -0.03382,-0.034674 -0.01113,-0.011127 -0.02266,-0.021862 -0.03382,-0.032973 -0.0108,-0.010964 -0.02126,-0.02214 -0.03214,-0.032973 -0.01047,-0.010636 -0.02154,-0.020733 -0.03214,-0.031287 -0.01015,-0.010309 -0.02013,-0.021011 -0.03044,-0.031287 -0.0098,-0.00998 -0.01972,-0.019734 -0.0296,-0.029602 -0.0098,-0.00998 -0.01972,-0.019735 -0.0296,-0.029602 -0.0092,-0.00933 -0.01859,-0.018606 -0.0279,-0.0279 -0.0092,-0.00933 -0.01859,-0.018606 -0.0279,-0.0279 -0.0087,-0.00884 -0.01746,-0.017476 -0.02622,-0.026215 -0.0083,-0.00851 -0.01689,-0.016904 -0.02536,-0.025364 -0.0083,-0.00851 -0.0169,-0.016904 -0.02536,-0.025364 -0.01145,-0.011618 -0.02307,-0.023154 -0.03468,-0.034674 -0.01129,-0.011455 -0.02238,-0.023236 -0.03382,-0.034675 -0.0072,-0.0072 -0.01473,-0.013909 -0.02199,-0.021142 -0.0069,-0.00687 -0.01342,-0.014236 -0.02029,-0.021142 -0.0065,-0.00671 -0.01374,-0.012764 -0.02029,-0.019456 -0.009,-0.009 -0.01802,-0.018049 -0.02707,-0.027065 -0.0087,-0.00884 -0.01748,-0.01746 -0.02622,-0.026215 -0.0056,-0.00573 -0.01129,-0.011291 -0.01692,-0.016904 -0.0051,-0.00507 -0.01015,-0.010145 -0.01522,-0.015218 -0.0047,-0.00475 -0.0097,-0.00965 -0.0144,-0.0144 -0.0065,-0.00671 -0.01276,-0.013745 -0.01946,-0.020291 -0.0043,-0.00425 -0.0085,-0.00851 -0.01276,-0.012764 -0.002,-0.00196 -0.0039,-0.00393 -0.0059,-0.00589 -0.0016,-0.00164 -0.0034,-0.00344 -0.0051,-0.00507 -0.002,-0.00196 -0.0039,-0.00393 -0.0059,-0.00589 -0.0016,-0.00164 -0.0034,-0.00344 -0.0051,-0.00507 -0.0018,-0.0018 -0.0041,-0.00327 -0.0059,-0.00507 -0.0015,-0.00154 -0.0026,-0.0036 -0.0043,-0.00507 -0.0014,-0.00142 -0.0028,-0.00278 -0.0043,-0.00425 -0.0014,-0.00141 -0.0028,-0.00278 -0.0043,-0.00425 -0.0015,-0.00156 -0.0036,-0.00262 -0.0051,-0.00425 -0.0026,-0.00262 -0.0049,-0.00573 -0.0077,-0.00851 -0.0011,-0.00113 -0.0023,-0.00229 -0.0034,-0.00344 -0.0011,-0.00113 -0.0023,-0.00229 -0.0034,-0.00344 -8.41e-4,-8.46e-4 -0.0016,-0.00164 -0.0025,-0.00245 -0.0011,-0.00113 -0.0023,-0.00229 -0.0034,-0.00344 -8.41e-4,-8.444e-4 -0.0016,-0.00164 -0.0026,-0.00262 -8.45e-4,-8.509e-4 -0.0016,-0.00164 -0.0025,-0.00245 -5.63e-4,-5.646e-4 -0.0011,-0.00113 -0.0016,-0.00164 -8.44e-4,-8.493e-4 -0.0016,-0.00164 -0.0026,-0.00245 -5.62e-4,-5.63e-4 -0.0011,-0.00113 -0.0016,-0.00164 l -8.46e-4,-8.46e-4 c -7.08e-4,-7.135e-4 -0.0018,-9.786e-4 -0.0025,-0.00164 -5.45e-4,-5.482e-4 -0.0011,-0.00114 -0.0016,-0.00164 -4.27e-4,-4.288e-4 -4.2e-4,-0.00126 -8.46e-4,-0.00164 0,0 -8.46e-4,-8.444e-4 -8.46e-4,-8.444e-4 -0.08147,-0.081916 -0.165999,-0.1606418 -0.252837,-0.237618 -0.0015,-0.00131 -0.0028,-0.00295 -0.0043,-0.00425 -8.92e-4,-7.855e-4 -0.0016,-0.0018 -0.0026,-0.00245 -8.9e-4,-7.854e-4 -0.0016,-0.0018 -0.0026,-0.00262 -0.05574,-0.049156 -0.114628,-0.095024 -0.172506,-0.1420691 -0.0016,-0.00139 -0.0034,-0.00278 -0.0051,-0.00425 -0.223776,-0.1815498 -0.461818,-0.3486356 -0.71606,-0.495514 -0.106593,-0.061576 -0.214391,-0.1194382 -0.323871,-0.1733514 -5.66e-4,-2.782e-4 -0.0011,-5.662e-4 -0.0016,-8.444e-4 -0.329603,-0.1621964 -0.671858,-0.289415 -1.020657,-0.3822179 -5.93e-4,-1.576e-4 -0.0011,-6.884e-4 -0.0016,-8.457e-4 C 20.998212,5.299721 20.520119,5.2374772 20.04178,5.2374772 Z"
       id="path1461"
       inkscape:connector-curvature="0" />
  </g>
  <g
     style="display:inline"
     inkscape:label="yolk"
     id="layer3"
     inkscape:groupmode="layer">
    <path
       inkscape:connector-curvature="0"
       style="color:#000000;display:inline;overflow:visible;visibility:visible;fill:#ffffff;fill-opacity:1;fill-rule:nonzero;stroke:none;stroke-width:8.27691269;marker:none;enable-background:accumulate"
       id="path7157"
       d="m 25.032615,10.233091 a 5.5383547,5.5383547 0 0 1 -11.076709,0 5.5383547,5.5383547 0 1 1 11.076709,0 z" />
    <path
       inkscape:connector-curvature="0"
       style="color:#000000;display:inline;overflow:visible;visibility:visible;fill:#facd00;fill-opacity:1;fill-rule:nonzero;stroke:none;stroke-width:8.27691269;marker:none;enable-background:accumulate"
       id="path7159"
       d="m 25.579995,10.780422 a 5.5383565,5.5383565 0 0 1 -11.076709,0 5.5383565,5.5383565 0 1 1 11.076709,0 z" />
  </g>
</svg>
